<svg width="103" height="102" viewBox="0 0 103 102" fill="none" xmlns="http://www.w3.org/2000/svg">
<path fill-rule="evenodd" clip-rule="evenodd" d="M89.75 13.6016H13.25C6.22054 13.6016 0.5 19.3221 0.5 26.3516V77.3516C0.5 77.4851 0.518598 77.6145 0.537268 77.7444C0.551893 77.8461 0.566562 77.9481 0.572372 78.0527C0.512451 78.5624 0.538132 79.0768 0.724899 79.5616C1.77469 85.5374 6.97694 90.1016 13.25 90.1016H89.75C96.7795 90.1016 102.5 84.381 102.5 77.3516V26.3516C102.5 19.3221 96.7795 13.6016 89.75 13.6016ZM13.2499 22.1018H89.7499C92.0915 22.1018 93.9996 24.01 93.9996 26.3516V60.0927L71.6451 37.7374C68.7378 34.83 64.0079 34.83 61.1052 37.7374L40.8752 57.9674L35.5196 52.6126C32.613 49.7053 27.8824 49.7053 24.9797 52.6126L9.00015 68.5922V26.3516C9.00015 24.01 10.9083 22.1018 13.2499 22.1018ZM21.7503 43.3513C26.4444 43.3513 30.2497 39.5459 30.2497 34.8518C30.2497 30.1569 26.4444 26.3516 21.7503 26.3516C17.0554 26.3516 13.25 30.1569 13.25 34.8518C13.25 39.5459 17.0554 43.3513 21.7503 43.3513Z" fill="#272832"/>
</svg>
