<svg width="24" height="24" viewBox="0 0 24 24" fill="none" xmlns="http://www.w3.org/2000/svg">
<path d="M22.5575 10.2864C22.4593 10.2705 22.3599 10.2631 22.2605 10.2644H5.32893L5.69813 10.0927C6.05901 9.92189 6.38731 9.68942 6.66834 9.40582L11.4164 4.6578C12.0417 4.06086 12.1468 3.10057 11.6654 2.38252C11.1051 1.61735 10.0306 1.45121 9.26537 2.0115C9.20355 2.05679 9.14479 2.10616 9.08957 2.15929L0.503633 10.7452C-0.167359 11.4155 -0.167949 12.5027 0.502291 13.1737C0.502721 13.1741 0.503204 13.1746 0.503633 13.175L9.08957 21.761C9.7611 22.4306 10.8484 22.4291 11.5181 21.7576C11.5708 21.7048 11.62 21.6485 11.6654 21.5893C12.1468 20.8712 12.0417 19.9109 11.4164 19.314L6.67693 14.5574C6.42498 14.3052 6.13531 14.0937 5.81833 13.9306L5.30317 13.6988H22.166C23.0432 13.7314 23.8128 13.1186 23.9776 12.2564C24.1294 11.3202 23.4936 10.4383 22.5575 10.2864Z" fill="white"/>
</svg>
