<svg width="20" height="20" viewBox="0 0 20 20" fill="none" xmlns="http://www.w3.org/2000/svg">
<path d="M18.7979 8.57071C18.7161 8.55743 18.6332 8.5513 18.5504 8.55238H4.44078L4.74844 8.40928C5.04917 8.26694 5.32276 8.07322 5.55695 7.83688L9.51364 3.88019C10.0347 3.38275 10.1223 2.58251 9.72113 1.98413C9.25422 1.34649 8.35883 1.20804 7.72114 1.67495C7.66963 1.71269 7.62066 1.75383 7.57465 1.7981L0.419694 8.95305C-0.139465 9.51159 -0.139957 10.4176 0.418576 10.9768C0.418934 10.9771 0.419336 10.9775 0.419694 10.9779L7.57465 18.1329C8.13425 18.6909 9.04029 18.6896 9.59838 18.13C9.64229 18.086 9.6833 18.0391 9.72113 17.9898C10.1223 17.3914 10.0347 16.5911 9.51364 16.0937L5.5641 12.1299C5.35415 11.9197 5.11276 11.7434 4.84861 11.6075L4.41931 11.4144H18.4716C19.2026 11.4415 19.844 10.9309 19.9813 10.2123C20.1078 9.43221 19.578 8.69726 18.7979 8.57071Z" fill="white"/>
</svg>
