<svg width="24" height="24" class="inline" viewBox="0 0 24 24" fill="none" xmlns="http://www.w3.org/2000/svg">
<circle cx="12.0339" cy="9.52913" r="9.52913" fill="#CD8034"/>
<path d="M4.31417 15.104L1.03543 20.7875L4.8622 20.5843L6.60079 24.0001L9.63386 18.7418C7.46063 18.1796 5.59449 16.8709 4.31417 15.104Z" fill="#40596B"/>
<path d="M19.7724 15.0757C18.5016 16.8473 16.6354 18.1607 14.4669 18.7324L17.5094 24.0001L19.248 20.5843L23.0748 20.7875L19.7724 15.0757Z" fill="#40596B"/>
<circle cx="12.0339" cy="9.52916" r="6.90709" fill="#AB6928"/>
<path d="M16.7677 8.78267C16.9803 8.5748 16.8622 8.21102 16.5693 8.1685L13.8433 7.77165C13.7252 7.75275 13.626 7.68189 13.574 7.57323L12.3551 5.10236C12.2228 4.83307 11.8402 4.83307 11.7079 5.10236L10.4937 7.57323C10.4417 7.67716 10.3378 7.75275 10.2244 7.77165L7.49842 8.1685C7.20551 8.21102 7.0874 8.5748 7.3 8.78267L9.27008 10.7055C9.35512 10.7905 9.39291 10.9087 9.37401 11.022L8.91102 13.7339C8.85905 14.0268 9.17086 14.2535 9.43543 14.1118L11.8732 12.8315C11.9772 12.7748 12.1047 12.7748 12.2087 12.8315L14.6465 14.1118C14.911 14.2488 15.2181 14.0268 15.1709 13.7339L14.7031 11.022C14.6842 10.9039 14.722 10.7858 14.8071 10.7055L16.7677 8.78267Z" fill="white"/>
</svg>