<svg width="16" height="16" viewBox="0 0 16 16" fill="none" xmlns="http://www.w3.org/2000/svg">
<path d="M15.6548 1.40965L14.558 0.325903C14.2613 0.029129 13.7709 0.029129 13.4613 0.325903L7.99029 5.79674L2.41623 0.222677C2.11932 -0.0742258 1.629 -0.0742258 1.31945 0.222677L0.222677 1.31945C-0.0742258 1.61623 -0.0742258 2.10655 0.222677 2.41623L5.78397 7.97752L0.325903 13.4614C0.029129 13.7582 0.029129 14.2485 0.325903 14.5582L1.42268 15.6549C1.71945 15.9517 2.20977 15.9517 2.51945 15.6549L7.99029 10.184L13.4613 15.6549C13.758 15.9517 14.2484 15.9517 14.558 15.6549L15.6548 14.5582C15.9516 14.2614 15.9516 13.7711 15.6548 13.4614L10.1709 7.99042L15.6419 2.51958C15.9516 2.20965 15.9516 1.71932 15.6548 1.40965Z" fill="white"/>
</svg>
