<svg width="16" height="16" viewBox="0 0 16 16" fill="none" xmlns="http://www.w3.org/2000/svg">
<path fill-rule="evenodd" clip-rule="evenodd" d="M2.97996 4.25178H3.96686C4.26641 4.25178 4.50929 4.00926 4.50929 3.70971V0.542266C4.50929 0.242683 4.26641 0 3.96686 0H2.97996C2.68038 0 2.43753 0.242683 2.43753 0.542266V3.70971C2.43753 4.00926 2.68038 4.25178 2.97996 4.25178ZM14.2397 1.77845V3.71056C14.2397 4.58385 13.5313 5.28759 12.6581 5.28759H11.6604C10.7871 5.28759 10.0693 4.58385 10.0693 3.71056V1.77152H5.57229V3.71056C5.57229 4.58385 4.85448 5.28759 3.98139 5.28759H2.98347C2.11034 5.28759 1.40192 4.58385 1.40192 3.71056V1.77845C0.638794 1.80146 0.0117188 2.43292 0.0117188 3.20906V14.5321C0.0117188 15.3229 0.652635 15.9723 1.44338 15.9723H14.1982C14.9878 15.9723 15.6299 15.3215 15.6299 14.5321V3.20906C15.6299 2.43292 15.0028 1.80146 14.2397 1.77845ZM13.7763 13.827C13.7763 14.1687 13.4992 14.446 13.1574 14.446H2.45697C2.11511 14.446 1.83804 14.1687 1.83804 13.827V7.97824C1.83804 7.63638 2.11508 7.35915 2.45697 7.35915H13.1573C13.4992 7.35915 13.7763 7.63638 13.7763 7.97824L13.7763 13.827ZM5.65403 8.81181C5.65403 8.61173 5.49173 8.44964 5.29149 8.44964H4.02638C3.82636 8.44964 3.66404 8.61173 3.66404 8.81181V10.0768C3.66404 10.2771 3.82636 10.4393 4.02638 10.4393H5.29149C5.49173 10.4393 5.65403 10.2771 5.65403 10.0768V8.81181ZM8.81571 8.81181C8.81571 8.61173 8.65339 8.44964 8.45354 8.44964H7.18826C6.98824 8.44964 6.82592 8.61173 6.82592 8.81181V10.0768C6.82592 10.2771 6.98824 10.4393 7.18826 10.4393H8.45354C8.65339 10.4393 8.81571 10.2771 8.81571 10.0768V8.81181ZM11.6152 8.44964C11.8152 8.44964 11.9776 8.61173 11.9776 8.81181V10.0768C11.9776 10.2771 11.8152 10.4393 11.6152 10.4393H10.3501C10.1499 10.4393 9.98757 10.2771 9.98757 10.0768V8.81181C9.98757 8.61173 10.1499 8.44964 10.3501 8.44964H11.6152ZM5.65403 11.9738C5.65403 11.7734 5.49173 11.6115 5.29149 11.6115H4.02638C3.82636 11.6115 3.66404 11.7734 3.66404 11.9738V13.2385C3.66404 13.4388 3.82636 13.6009 4.02638 13.6009H5.29149C5.49173 13.6009 5.65403 13.4387 5.65403 13.2385V11.9738ZM8.45354 11.6115C8.65339 11.6115 8.81571 11.7734 8.81571 11.9738V13.2385C8.81571 13.4387 8.65339 13.6009 8.45354 13.6009H7.18826C6.98824 13.6009 6.82592 13.4388 6.82592 13.2385V11.9738C6.82592 11.7734 6.98824 11.6115 7.18826 11.6115H8.45354ZM11.9776 11.9738C11.9776 11.7734 11.8152 11.6115 11.6154 11.6115H10.3501C10.1499 11.6115 9.98757 11.7734 9.98757 11.9738V13.2385C9.98757 13.4388 10.1499 13.6009 10.3501 13.6009H11.6154C11.8152 13.6009 11.9776 13.4387 11.9776 13.2385V11.9738ZM12.6346 4.25178H11.6477C11.3482 4.25178 11.1053 4.00926 11.1053 3.70971V0.542266C11.1053 0.242683 11.3482 0 11.6477 0H12.6346C12.934 0 13.1768 0.242683 13.1768 0.542266V3.70971C13.1768 4.00926 12.9339 4.25178 12.6346 4.25178Z" fill="white"/>
</svg>
