<svg width="22" height="22" viewBox="0 0 22 22" fill="none" xmlns="http://www.w3.org/2000/svg">
<path fill-rule="evenodd" clip-rule="evenodd" d="M14.999 15.7501H18.6916L18.6916 15.7501C19.9642 15.7501 20.9999 14.7143 20.9999 13.4417C20.9999 13.2672 20.9798 13.0926 20.9407 12.9223L19.6065 6.79928C19.236 5.44613 17.9964 4.5007 16.5926 4.5007L10.3749 4.50009C8.6519 4.50009 7.24992 5.90206 7.24992 7.62509V14.1656C7.24992 14.9383 7.53435 15.6805 8.05131 16.2561L13.0354 21.7932C13.1911 21.9659 13.4279 22.0373 13.6513 21.9812L14.5693 21.7517C15.1399 21.6095 15.6014 21.2182 15.8351 20.6787C16.0689 20.1397 16.0396 19.5361 15.754 19.0228L14.4521 16.6784C14.2958 16.3964 14.4057 16.1505 14.46 16.0583C14.5143 15.9655 14.6761 15.7501 14.999 15.7501ZM1 5.74982V15.7498C1 16.4402 1.55962 16.9998 2.25 16.9998H6V4.49981H2.25C1.55962 4.49981 1 5.05951 1 5.74982Z" fill="#272832"/>
</svg>
