<svg
  width="9"
  height="15"
  viewBox="0 0 9 15"
  fill="none"
  xmlns="http://www.w3.org/2000/svg"
>
<path d="M8.37 10.075C8.37 10.875 8.09 11.545 7.53 12.085C6.97 12.625 6.22 12.955 5.28 13.075V14.725H4.02V13.105C3.35 13.055 2.725 12.925 2.145 12.715C1.565 12.495 1.06 12.195 0.63 11.815L1.185 10.66C1.695 11.08 2.215 11.385 2.745 11.575C3.275 11.765 3.855 11.86 4.485 11.86C5.225 11.86 5.795 11.71 6.195 11.41C6.605 11.11 6.81 10.68 6.81 10.12C6.81 9.79 6.7 9.525 6.48 9.325C6.27 9.115 6.005 8.955 5.685 8.845C5.365 8.735 4.92 8.605 4.35 8.455C3.6 8.265 2.99 8.075 2.52 7.885C2.05 7.695 1.645 7.4 1.305 7C0.975 6.6 0.81 6.07 0.81 5.41C0.81 4.6 1.1 3.915 1.68 3.355C2.27 2.785 3.045 2.445 4.005 2.335V0.699999H5.265V2.335C5.845 2.395 6.39 2.535 6.9 2.755C7.42 2.975 7.86 3.255 8.22 3.595L7.665 4.735C6.765 3.955 5.755 3.565 4.635 3.565C3.945 3.565 3.395 3.725 2.985 4.045C2.575 4.355 2.37 4.785 2.37 5.335C2.37 5.705 2.485 6.01 2.715 6.25C2.945 6.48 3.23 6.66 3.57 6.79C3.91 6.91 4.375 7.04 4.965 7.18C5.695 7.36 6.285 7.54 6.735 7.72C7.185 7.9 7.57 8.18 7.89 8.56C8.21 8.94 8.37 9.445 8.37 10.075Z" fill="white"/>
</svg>
