<svg width="15" height="15" viewBox="0 0 15 15" fill="none" xmlns="http://www.w3.org/2000/svg">
<path fill-rule="evenodd" clip-rule="evenodd" d="M12.3331 0.457031C12.9419 -0.152344 13.9331 -0.152344 14.5425 0.457031C14.8375 0.752031 15 1.14453 15 1.56203C15 1.97953 14.8375 2.37203 14.5425 2.66641L13.6775 3.53141L11.4681 1.32203L12.3331 0.457031ZM5.86 6.93015C5.81625 6.9739 5.78688 7.02953 5.77438 7.08953L5.3325 9.29953C5.31188 9.40203 5.34438 9.50766 5.41813 9.58203C5.4775 9.64141 5.5575 9.67328 5.63938 9.67328C5.65938 9.67328 5.68 9.6714 5.70063 9.66703L7.91 9.22515C7.97125 9.21265 8.02688 9.18328 8.07 9.13953L13.015 4.19453L10.8056 1.98515L5.86 6.93015ZM11.875 7.49953C11.5294 7.49953 11.25 7.77953 11.25 8.12453V13.1245C11.25 13.4689 10.97 13.7495 10.625 13.7495H1.875C1.53 13.7495 1.25 13.4689 1.25 13.1245V4.37453C1.25 4.03015 1.53 3.74953 1.875 3.74953H6.875C7.22062 3.74953 7.5 3.46953 7.5 3.12453C7.5 2.77953 7.22062 2.49953 6.875 2.49953H1.875C0.84125 2.49953 0 3.34078 0 4.37453V13.1245C0 14.1583 0.84125 14.9995 1.875 14.9995H10.625C11.6587 14.9995 12.5 14.1583 12.5 13.1245V8.12453C12.5 7.7789 12.2206 7.49953 11.875 7.49953Z" fill="white"/>
</svg>
