<svg width="260" height="200" viewBox="0 0 260 200" fill="none" xmlns="http://www.w3.org/2000/svg">
<path d="M44.9818 126.777H70.9969C70.9969 126.777 78.5784 127.77 75.446 135.182H82.348C84.5502 132.126 85.1044 128.182 83.8292 124.638C81.7055 118.543 74.6018 117.391 74.6018 117.391H47.1055C47.1055 117.391 40.3416 120.189 44.9818 126.777Z" fill="#787B8C" stroke="#263238" stroke-width="1.1326" stroke-linecap="round" stroke-linejoin="round"/>
<path fill-rule="evenodd" clip-rule="evenodd" d="M102.026 157.163C102.764 159.096 103.521 161.077 104.2 163.18C106.945 171.664 106.446 184.64 106.446 184.64H34.8146C34.8146 184.64 34.7986 174.664 34.3155 164.178C33.8606 154.305 29.8562 142.925 26.6819 133.904C26.4851 133.345 26.2915 132.794 26.1022 132.254C22.8583 123 27.6206 115.992 31.5919 111.017C33.0614 109.177 34.4663 106.443 35.8933 103.666C38.3227 98.9389 40.8164 94.0866 43.803 93.3006C47.2431 92.3954 58.8309 93.3293 67.2193 94.0053C70.3919 94.261 73.1069 94.4798 74.7503 94.5483C79.9049 94.7631 80.8078 97.381 82.8686 103.357C83.2021 104.324 83.5659 105.379 83.983 106.526C85.4967 110.689 89.0414 112.983 92.4828 115.21C96.791 117.998 100.937 120.681 100.734 126.796C100.649 128.997 100.102 131.161 99.554 133.326C99.1012 135.116 98.6481 136.907 98.4559 138.721C97.7049 145.855 99.7819 151.291 102.026 157.163ZM54.0339 133.98H73.0036C76.6524 133.877 79.5571 130.89 79.5571 127.24C79.5571 123.589 76.6524 120.602 73.0036 120.5H54.0339C50.3851 120.602 47.4804 123.589 47.4804 127.24C47.4804 130.89 50.3851 133.877 54.0339 133.98Z" fill="#4932B8"/>
<path d="M104.2 163.18L103.662 163.354L103.662 163.355L104.2 163.18ZM102.026 157.163L102.555 156.961L102.026 157.163ZM106.446 184.64V185.206C106.751 185.206 107 184.966 107.012 184.662L106.446 184.64ZM34.8146 184.64L34.2483 184.641C34.2488 184.953 34.5022 185.206 34.8146 185.206V184.64ZM34.3155 164.178L34.8812 164.152L34.3155 164.178ZM26.6819 133.904L27.2161 133.716L27.2161 133.716L26.6819 133.904ZM26.1022 132.254L26.6366 132.067H26.6366L26.1022 132.254ZM31.5919 111.017L32.0345 111.371L31.5919 111.017ZM35.8933 103.666L35.3896 103.407L35.8933 103.666ZM43.803 93.3006L43.6589 92.753L43.803 93.3006ZM67.2193 94.0053L67.2648 93.4408L67.2193 94.0053ZM74.7503 94.5483L74.7739 93.9825L74.7503 94.5483ZM82.8686 103.357L82.3333 103.541V103.541L82.8686 103.357ZM83.983 106.526L84.5153 106.332L84.5152 106.332L83.983 106.526ZM92.4828 115.21L92.7904 114.735L92.4828 115.21ZM100.734 126.796L101.299 126.818L101.3 126.815L100.734 126.796ZM99.554 133.326L99.005 133.187L99.554 133.326ZM98.4559 138.721L97.8927 138.661L97.8927 138.662L98.4559 138.721ZM73.0036 133.98V134.546C73.0089 134.546 73.0142 134.546 73.0195 134.546L73.0036 133.98ZM54.0339 133.98L54.018 134.546C54.0233 134.546 54.0286 134.546 54.0339 134.546V133.98ZM73.0036 120.5L73.0195 119.934C73.0142 119.933 73.0089 119.933 73.0036 119.933V120.5ZM54.0339 120.5V119.933C54.0286 119.933 54.0233 119.933 54.018 119.934L54.0339 120.5ZM104.739 163.006C104.054 160.886 103.292 158.892 102.555 156.961L101.497 157.365C102.236 159.3 102.987 161.267 103.662 163.354L104.739 163.006ZM106.446 184.64C107.012 184.662 107.012 184.662 107.012 184.662C107.012 184.661 107.012 184.661 107.012 184.661C107.012 184.66 107.012 184.66 107.012 184.659C107.012 184.657 107.012 184.655 107.013 184.651C107.013 184.645 107.013 184.635 107.014 184.622C107.014 184.597 107.016 184.559 107.017 184.51C107.02 184.411 107.024 184.266 107.028 184.079C107.037 183.704 107.046 183.16 107.048 182.482C107.052 181.125 107.028 179.227 106.918 177.063C106.699 172.746 106.135 167.321 104.739 163.006L103.662 163.355C105.011 167.524 105.569 172.828 105.787 177.12C105.896 179.26 105.919 181.137 105.915 182.478C105.913 183.149 105.904 183.685 105.896 184.053C105.892 184.237 105.888 184.379 105.885 184.475C105.884 184.523 105.882 184.559 105.882 184.583C105.881 184.595 105.881 184.604 105.881 184.61C105.881 184.613 105.88 184.615 105.88 184.616C105.88 184.617 105.88 184.618 105.88 184.618C105.88 184.618 105.88 184.618 105.88 184.618C105.88 184.618 105.88 184.618 106.446 184.64ZM34.8146 185.206H106.446V184.074H34.8146V185.206ZM33.7498 164.204C33.991 169.44 34.1157 174.55 34.18 178.351C34.2121 180.251 34.2292 181.824 34.2382 182.922C34.2428 183.471 34.2453 183.901 34.2466 184.194C34.2473 184.34 34.2477 184.452 34.248 184.527C34.2481 184.565 34.2482 184.593 34.2482 184.612C34.2482 184.622 34.2482 184.629 34.2483 184.634C34.2483 184.636 34.2483 184.638 34.2483 184.639C34.2483 184.64 34.2483 184.64 34.2483 184.641C34.2483 184.641 34.2483 184.641 34.2483 184.641C34.2483 184.641 34.2483 184.641 34.8146 184.64C35.3809 184.639 35.3809 184.639 35.3809 184.639C35.3809 184.639 35.3809 184.639 35.3809 184.639C35.3809 184.638 35.3809 184.638 35.3809 184.637C35.3809 184.636 35.3809 184.634 35.3809 184.632C35.3808 184.627 35.3808 184.619 35.3808 184.61C35.3808 184.59 35.3807 184.562 35.3806 184.524C35.3803 184.448 35.3799 184.335 35.3792 184.188C35.3779 183.894 35.3753 183.463 35.3708 182.913C35.3618 181.812 35.3447 180.236 35.3124 178.332C35.248 174.524 35.1231 169.402 34.8812 164.152L33.7498 164.204ZM26.1477 134.092C29.3295 143.134 33.2995 154.431 33.7498 164.204L34.8812 164.152C34.4217 154.179 30.3829 142.716 27.2161 133.716L26.1477 134.092ZM25.5678 132.442C25.7573 132.982 25.951 133.533 26.1477 134.092L27.2161 133.716C27.0193 133.157 26.8258 132.607 26.6366 132.067L25.5678 132.442ZM31.1493 110.664C27.1684 115.651 22.2166 122.882 25.5678 132.442L26.6366 132.067C23.4999 123.119 28.0728 116.333 32.0345 111.371L31.1493 110.664ZM35.3896 103.407C33.9531 106.203 32.5757 108.877 31.1493 110.664L32.0345 111.371C33.5472 109.476 34.9795 106.683 36.397 103.925L35.3896 103.407ZM43.6589 92.753C41.9496 93.2028 40.4786 94.774 39.1717 96.6858C37.8472 98.6232 36.5998 101.052 35.3896 103.407L36.397 103.925C37.6162 101.553 38.8303 99.1921 40.1067 97.325C41.4006 95.4323 42.6698 94.1844 43.9472 93.8483L43.6589 92.753ZM67.2648 93.4408C63.0727 93.103 58.0688 92.6996 53.682 92.4943C51.4887 92.3916 49.4421 92.338 47.7238 92.3675C46.0201 92.3968 44.5908 92.5077 43.6589 92.753L43.9472 93.8483C44.7353 93.6409 46.0445 93.5291 47.7432 93.5C49.4272 93.4711 51.4468 93.5235 53.6291 93.6257C57.9933 93.8299 62.9775 94.2316 67.1738 94.5698L67.2648 93.4408ZM74.7739 93.9825C73.1443 93.9146 70.4434 93.697 67.2648 93.4408L67.1738 94.5698C70.3404 94.825 73.0694 95.045 74.7268 95.1141L74.7739 93.9825ZM83.404 103.172C82.3869 100.223 81.6154 97.9629 80.4141 96.4413C79.1558 94.8475 77.4641 94.0946 74.7739 93.9825L74.7268 95.1141C77.1912 95.2168 78.5282 95.8802 79.5252 97.1431C80.5791 98.4781 81.2895 100.515 82.3333 103.541L83.404 103.172ZM84.5152 106.332C84.1 105.19 83.7376 104.14 83.404 103.172L82.3333 103.541C82.6666 104.508 83.0319 105.567 83.4508 106.719L84.5152 106.332ZM92.7904 114.735C89.3215 112.49 85.9538 110.29 84.5153 106.332L83.4508 106.719C85.0395 111.089 88.7613 113.476 92.1751 115.686L92.7904 114.735ZM101.3 126.815C101.406 123.604 100.364 121.267 98.7276 119.384C97.1157 117.529 94.9292 116.119 92.7904 114.735L92.1751 115.686C94.3446 117.089 96.3852 118.415 97.8726 120.127C99.3357 121.811 100.264 123.873 100.168 126.777L101.3 126.815ZM100.103 133.465C100.648 131.31 101.212 129.088 101.299 126.818L100.168 126.775C100.086 128.905 99.5555 131.011 99.005 133.187L100.103 133.465ZM99.019 138.78C99.2063 137.014 99.6484 135.262 100.103 133.465L99.005 133.187C98.5539 134.97 98.0899 136.8 97.8927 138.661L99.019 138.78ZM102.555 156.961C100.308 151.082 98.284 145.763 99.0191 138.78L97.8927 138.662C97.1259 145.946 99.2554 151.499 101.497 157.365L102.555 156.961ZM73.0036 133.413H54.0339V134.546H73.0036V133.413ZM78.9908 127.24C78.9908 130.583 76.33 133.32 72.9877 133.414L73.0195 134.546C76.9747 134.435 80.1234 131.196 80.1234 127.24H78.9908ZM72.9877 121.066C76.33 121.16 78.9908 123.896 78.9908 127.24H80.1234C80.1234 123.283 76.9747 120.045 73.0195 119.934L72.9877 121.066ZM54.0339 121.066H73.0036V119.933H54.0339V121.066ZM48.0467 127.24C48.0467 123.896 50.7074 121.16 54.0497 121.066L54.018 119.934C50.0628 120.045 46.9141 123.283 46.9141 127.24H48.0467ZM54.0497 133.414C50.7074 133.32 48.0467 130.583 48.0467 127.24H46.9141C46.9141 131.196 50.0628 134.435 54.018 134.546L54.0497 133.414Z" fill="#263238"/>
<path d="M34.2852 106.718C38.9042 109.129 45.6575 113.849 49.6818 122.115C50.8951 121.073 52.4411 120.498 54.0407 120.496H73.0104C74.8894 120.499 76.6809 121.29 77.948 122.678L78.0913 122.773C80.215 119.137 83.2678 114.48 86.7294 110.817C85.5215 109.596 84.5876 108.132 83.9898 106.522C80.9955 98.2874 80.7459 94.7939 74.7572 94.5444C68.7684 94.2948 48.551 92.0491 43.8099 93.2967C40.1571 94.2577 37.2477 101.266 34.2852 106.718Z" fill="#787B8C" stroke="#263238" stroke-width="1.1326" stroke-linecap="round" stroke-linejoin="round"/>
<path d="M47.3875 184.89H99.7786C99.4016 180.149 98.4832 168.962 97.708 162.432C96.7099 153.937 96.2108 148.453 93.7155 145.973C91.2202 143.494 75.4996 131.734 70.9974 131.235C70.9974 131.235 58.0165 130.237 54.008 130.985C49.9996 131.734 41.7969 144.71 41.7969 146.955C41.7969 149.084 47.637 170.927 47.3875 184.89Z" fill="#787B8C" stroke="#263238" stroke-width="1.1326" stroke-linecap="round" stroke-linejoin="round"/>
<path d="M37.0607 161.932C36.3121 151.447 28.327 127.242 26.5803 123.249C26.1277 121.982 26.063 120.609 26.3945 119.305C24.6555 123.419 24.5435 128.039 26.0812 132.233C29.3252 141.465 33.8167 153.692 34.3158 164.178C34.8149 174.664 34.8149 184.64 34.8149 184.64H36.8908C37.1084 179.421 37.6818 170.602 37.0607 161.932Z" fill="#787B8C" stroke="#263238" stroke-width="1.1326" stroke-linecap="round" stroke-linejoin="round"/>
<path d="M80.739 146.457C77.7446 141.716 67.9969 143.961 60.2721 143.712C52.5472 143.462 51.7773 145.708 51.7773 149.95C51.7773 153.555 55.5628 177.521 56.699 184.64H88.517C88.517 170.704 83.5954 150.98 80.739 146.457Z" fill="#4932B8" stroke="#263238" stroke-width="1.1326" stroke-linecap="round" stroke-linejoin="round"/>
<path d="M70.5764 143.41C67.3378 143.474 63.8019 143.798 60.5898 143.723C61.9543 148.141 67.29 166.468 67.7519 184.641H77.7757C77.2607 176.348 75.6042 158.133 70.5764 143.41Z" fill="white" stroke="#263238" stroke-width="1.1326" stroke-linecap="round" stroke-linejoin="round"/>
<path d="M81.6641 10L138.67 14.0362L133.417 88.227L76.4111 84.1908L81.6641 10Z" fill="#4932B8"/>
<path opacity="0.5" d="M76.4102 84.1953L81.6631 10.0045L138.669 14.0407L133.416 88.2315L76.4102 84.1953Z" fill="white"/>
<path d="M123.486 67.5171L89.2792 64.7457C88.7891 64.7064 88.3347 64.474 88.0161 64.0996C87.6974 63.7252 87.5406 63.2395 87.5802 62.7494L90.1074 30.9898C90.1892 29.9715 91.0798 29.2115 92.0984 29.2909L126.306 32.0463C127.324 32.1281 128.084 33.0187 128.004 34.0373L125.483 65.8075C125.446 66.2995 125.215 66.7566 124.84 67.0775C124.465 67.3984 123.978 67.5566 123.486 67.5171Z" fill="white"/>
<path opacity="0.08" d="M109.026 51.333C108.944 50.6199 109.338 49.9368 109.996 49.6507C110.655 49.3646 111.423 49.543 111.888 50.09C112.352 50.637 112.405 51.4237 112.016 52.0275C111.628 52.6312 110.89 52.9097 110.2 52.7134C109.566 52.5318 109.104 51.9876 109.026 51.333Z" fill="black"/>
<path opacity="0.08" d="M103.136 50.8682C103.052 50.1545 103.445 49.4697 104.104 49.1826C104.763 48.8956 105.532 49.0739 105.997 49.6217C106.463 50.1694 106.514 50.9573 106.124 51.5611C105.734 52.1648 104.995 52.442 104.304 52.2433C103.673 52.0631 103.212 51.5205 103.136 50.8682Z" fill="black"/>
<path opacity="0.08" d="M92.006 55.9943C91.8452 54.6351 92.5931 53.3309 93.8473 52.7832C95.1016 52.2354 96.5665 52.5732 97.4543 53.6149C98.342 54.6566 98.4433 56.1565 97.7036 57.3081C96.9639 58.4596 95.5576 58.9912 94.2412 58.617C93.0358 58.2729 92.1546 57.239 92.006 55.9943Z" fill="black"/>
<path opacity="0.08" d="M115.924 57.9653C115.765 56.6089 116.512 55.3083 117.764 54.7625C119.016 54.2167 120.477 54.5541 121.363 55.5935C122.249 56.6329 122.35 58.1294 121.613 59.2789C120.875 60.4283 119.473 60.9599 118.159 60.588C116.953 60.2439 116.072 59.21 115.924 57.9653Z" fill="black"/>
<path opacity="0.08" d="M111.033 58.3422L108.384 58.1298L108.596 55.4752L106.037 55.2734L105.825 57.9227L103.17 57.7104L102.969 60.2694L105.618 60.4818L105.406 63.1364L107.965 63.3381L108.177 60.6888L110.832 60.9012L111.033 58.3422Z" fill="black"/>
<path opacity="0.08" d="M122.059 48.0808L93.7823 45.7554C93.2354 45.713 92.8226 45.2413 92.8532 44.6936L93.7557 33.7248C93.7982 33.1771 94.2689 32.7628 94.8176 32.7904L123.094 35.1211C123.643 35.1608 124.057 35.6342 124.023 36.1829L123.1 47.2261C123.041 47.7456 122.58 48.1243 122.059 48.0808Z" fill="black"/>
<path opacity="0.7" fill-rule="evenodd" clip-rule="evenodd" d="M79.6875 80.5366L84.5029 14.1133L135.535 17.835L130.719 84.2531L79.6875 80.5366ZM82.2412 77.6484L128.601 81.0091L132.981 20.6808L86.616 17.3094L82.2412 77.6484Z" fill="white"/>
<path d="M166.906 34.457L223.755 28.6124L231.361 102.599L174.513 108.444L166.906 34.457Z" fill="#4932B8"/>
<path opacity="0.5" d="M166.906 34.457L223.755 28.6124L231.361 102.599L174.513 108.444L166.906 34.457Z" fill="white"/>
<path d="M177.982 47.4433C177.785 45.5092 179.193 43.7816 181.127 43.5845L211.36 40.5028C213.294 40.3057 215.022 41.7137 215.219 43.6477L219.848 89.0609C220.045 90.9949 218.637 92.7226 216.703 92.9197L186.47 96.0013C184.536 96.1985 182.808 94.7904 182.611 92.8564L177.982 47.4433Z" fill="white"/>
<path opacity="0.08" d="M201.257 74.8973C201.018 74.114 201.319 73.2664 202 72.8105C202.68 72.3547 203.579 72.3981 204.212 72.9174C204.846 73.4368 205.064 74.3095 204.751 75.0661C204.437 75.8227 203.665 76.2846 202.85 76.2034C202.105 76.1263 201.478 75.6124 201.257 74.8973Z" fill="black"/>
<path opacity="0.08" d="M194.542 75.5809C194.303 74.7976 194.605 73.95 195.285 73.4941C195.966 73.0382 196.864 73.0817 197.498 73.601C198.131 74.1204 198.35 74.9931 198.036 75.7497C197.722 76.5063 196.95 76.9682 196.135 76.887C195.39 76.8112 194.762 76.2968 194.542 75.5809Z" fill="black"/>
<path opacity="0.08" d="M198.316 79.3309C198.076 78.5476 198.378 77.7 199.059 77.2441C199.739 76.7882 200.638 76.8317 201.271 77.351C201.904 77.8704 202.123 78.7431 201.809 79.4997C201.495 80.2563 200.723 80.7182 199.908 80.637C199.163 80.5626 198.535 80.0476 198.316 79.3309Z" fill="black"/>
<path opacity="0.08" d="M216.112 80.0621L213.091 80.37L212.783 77.3438L209.863 77.6411L210.171 80.6673L207.145 80.9752L207.442 83.8953L210.468 83.5874L210.776 86.6136L213.696 86.3163L213.388 83.29L216.414 82.9821L216.112 80.0621Z" fill="black"/>
<path opacity="0.08" d="M194.031 82.3146L191.005 82.6225L190.697 79.6016L187.777 79.8989L188.085 82.9198L185.059 83.2277L185.356 86.1478L188.382 85.8399L188.69 88.8661L191.61 88.5688L191.302 85.5426L194.328 85.2346L194.031 82.3146Z" fill="black"/>
<path opacity="0.08" d="M182.588 49.1135C182.485 48.1081 183.217 47.2099 184.223 47.1074L209.046 44.5773C210.051 44.4748 210.949 45.2068 211.052 46.2123L213.219 67.4749C213.321 68.4804 212.589 69.3786 211.584 69.4811L186.761 72.0112C185.756 72.1137 184.858 71.3817 184.755 70.3762L182.588 49.1135Z" fill="black"/>
<path opacity="0.08" d="M197.254 87.2578L204.575 86.5116L204.984 90.5311L197.664 91.2773L197.254 87.2578Z" fill="black"/>
<path d="M116.757 138.852C116.757 138.852 119.056 139.876 121.354 143.964C123.653 148.052 156.039 166.438 156.554 171.572C157.069 176.706 158.816 177.476 152.169 178.474C145.522 179.472 136.183 172.634 124.933 166.475C113.683 160.317 108.32 160.842 108.32 160.842L116.757 138.852Z" fill="white" stroke="#263238" stroke-width="1.1326" stroke-linecap="round" stroke-linejoin="round"/>
<path d="M149.858 166.012C149.858 166.012 142.702 166.936 140.164 169.935C137.626 172.935 141.539 177.623 143.965 178.51C146.391 179.396 153.782 178.706 155.858 174.793C157.934 170.88 156.32 169.946 153.548 167.891" fill="white"/>
<path d="M149.858 166.012C149.858 166.012 142.702 166.936 140.164 169.935C137.626 172.935 141.539 177.623 143.965 178.51C146.391 179.396 153.782 178.706 155.858 174.793C157.934 170.88 156.32 169.946 153.548 167.891" stroke="#263238" stroke-width="1.1326" stroke-linecap="round" stroke-linejoin="round"/>
<path d="M143.907 172.669C143.907 172.669 141.252 174.682 140.642 175.244C140.031 175.807 139.134 178.26 138.518 178.695C137.902 179.131 135.63 179.513 135.375 180.14C135.12 180.766 137.387 181.461 139.145 181.398C140.902 181.334 142.282 179.274 143.976 178.51C145.074 178.043 146.242 177.767 147.432 177.692C147.432 177.692 148.999 174.241 148.372 172.861C147.746 171.48 145.325 171.666 143.907 172.669Z" fill="white" stroke="#263238" stroke-width="1.1326" stroke-linecap="round" stroke-linejoin="round"/>
<path d="M150.206 168.962C149.646 168.862 149.072 168.862 148.512 168.962C147.152 169.156 145.808 169.443 144.488 169.822C143.835 170.152 142.826 174.298 142.337 176.257C141.849 178.216 139.911 181.747 140.745 181.911C141.578 182.076 143.633 182.538 143.983 181.28C144.551 179.273 145.81 175.54 145.81 175.54C145.81 175.54 144.827 179.135 145.316 179.788C145.804 180.441 153.646 180.276 154.628 179.947C155.61 179.618 157.893 175.376 158.058 173.088C158.18 171.139 152.674 169.435 150.206 168.962Z" fill="white" stroke="#263238" stroke-width="1.1326" stroke-linecap="round" stroke-linejoin="round"/>
<path d="M148.676 180.077L150.688 172.23" stroke="#263238" stroke-width="1.1326" stroke-linecap="round" stroke-linejoin="round"/>
<path d="M152.945 179.953L154.83 172.547" stroke="#263238" stroke-width="1.1326" stroke-linecap="round" stroke-linejoin="round"/>
<path d="M145.793 175.532L146.791 171.98" stroke="#263238" stroke-width="1.1326" stroke-linecap="round" stroke-linejoin="round"/>
<path d="M130.814 149.586C122.903 142.557 114.011 133.048 103.764 129.634C101.118 128.784 98.6647 127.422 96.5433 125.626C96.5433 125.626 89.3388 120.518 84.7782 120.269C79.5592 119.977 75.5295 125.498 73.0979 129.459C62.2884 147.123 60.8868 167.553 60.4727 187.86H108.319C108.319 187.86 105.537 183.555 108.574 171.152C109.147 168.794 109.885 166.479 110.783 164.224C111.669 164.606 112.646 165.015 113.687 165.445C118.03 167.234 128.022 172.878 128.022 172.878L139.261 156.573C139.261 156.573 133.113 151.636 130.814 149.586Z" fill="white" stroke="#263238" stroke-width="1.1326" stroke-linecap="round" stroke-linejoin="round"/>
<path d="M87.1675 123.603C85.7659 121.102 82.7184 118.527 77.9454 121.277C71.7655 124.834 53.3904 161.526 52.1268 167.096C50.8632 172.665 76.6765 176.238 86.8012 176.238C93.07 176.226 99.3341 175.895 105.569 175.245L107.56 176.488C107.56 176.488 107.56 181.298 109.333 181.797C111.107 182.296 116.676 182.328 118.444 181.292C120.212 180.257 119.713 177.496 119.713 177.496C119.713 177.496 120.976 183.066 122.999 183.57C123.67 183.745 124.373 183.756 125.049 183.602C125.372 183.524 125.632 183.282 125.731 182.964C125.83 182.646 125.754 182.299 125.532 182.052L125.001 181.42L121.502 173.7C121.502 173.7 120.536 169.527 119.272 169.527C118.009 169.527 107.836 169.394 107.836 169.394C107.836 169.394 90.6238 167.372 83.2812 165.344C75.9386 163.315 72.0575 160.486 72.0575 160.486L86.1375 137.518" fill="white"/>
<path d="M105.124 173.11C101.322 172.664 89.6844 172.887 74.6859 170.869C59.6875 168.852 56.1038 165.273 59.0185 164.381C61.9333 163.489 71.7606 161.472 72.4508 161.472C73.141 161.472 59.9158 159.008 59.9158 159.008L67.0354 136.492C60.1334 148.507 52.9023 163.675 52.1272 167.094C50.8583 172.664 76.6769 176.237 86.8015 176.237C93.0703 176.225 99.3345 175.894 105.57 175.244L107.56 176.486C107.56 176.486 107.56 181.296 109.334 181.796C109.856 181.927 110.389 182.011 110.927 182.045C111.659 181.425 112.147 180.565 112.307 179.619C112.684 177.23 108.93 173.582 105.124 173.11Z" fill="#4932B8"/>
<path opacity="0.5" d="M105.124 173.11C101.322 172.664 89.6844 172.887 74.6859 170.869C59.6875 168.852 56.1038 165.273 59.0185 164.381C61.9333 163.489 71.7606 161.472 72.4508 161.472C73.141 161.472 59.9158 159.008 59.9158 159.008L67.0354 136.492C60.1334 148.507 52.9023 163.675 52.1272 167.094C50.8583 172.664 76.6769 176.237 86.8015 176.237C93.0703 176.225 99.3345 175.894 105.57 175.244L107.56 176.486C107.56 176.486 107.56 181.296 109.334 181.796C109.856 181.927 110.389 182.011 110.927 182.045C111.659 181.425 112.147 180.565 112.307 179.619C112.684 177.23 108.93 173.582 105.124 173.11Z" fill="white"/>
<path d="M87.1675 123.603C85.7659 121.102 82.7184 118.527 77.9454 121.277C71.7655 124.834 53.3904 161.526 52.1268 167.096C50.8632 172.665 76.6765 176.238 86.8012 176.238C93.07 176.226 99.3341 175.895 105.569 175.245L107.56 176.488C107.56 176.488 107.56 181.298 109.333 181.797C111.107 182.296 116.676 182.328 118.444 181.292C120.212 180.257 119.713 177.496 119.713 177.496C119.713 177.496 120.976 183.066 122.999 183.57C123.67 183.745 124.373 183.756 125.049 183.602C125.372 183.524 125.632 183.282 125.731 182.964C125.83 182.646 125.754 182.299 125.532 182.052L125.001 181.42L121.502 173.7C121.502 173.7 120.536 169.527 119.272 169.527C118.009 169.527 107.836 169.394 107.836 169.394C107.836 169.394 90.6238 167.372 83.2812 165.344C75.9386 163.315 72.0575 160.486 72.0575 160.486L86.1375 137.518" stroke="#263238" stroke-width="1.1326" stroke-linecap="round" stroke-linejoin="round"/>
<path d="M115.715 173.613C115.715 173.613 117.594 179.124 117.594 180.027C117.567 180.653 117.413 181.267 117.143 181.832" stroke="#263238" stroke-width="1.1326" stroke-linecap="round" stroke-linejoin="round"/>
<path d="M112.488 174.465C112.488 174.465 114.288 179.578 114.442 180.629C114.566 181.174 114.395 181.744 113.991 182.131" stroke="#263238" stroke-width="1.1326" stroke-linecap="round" stroke-linejoin="round"/>
<path d="M119.712 177.474L118.496 172.812" stroke="#263238" stroke-width="1.1326" stroke-linecap="round" stroke-linejoin="round"/>
<path d="M107.559 176.461L110.075 177.321C110.075 177.321 111.583 178.075 110.378 179.126" fill="white"/>
<path d="M107.559 176.461L110.075 177.321C110.075 177.321 111.583 178.075 110.378 179.126" stroke="#263238" stroke-width="1.1326" stroke-linecap="round" stroke-linejoin="round"/>
<path d="M88.1285 124.254C88.1285 124.254 86.7799 119.741 81.3646 119.592C75.9492 119.444 72.0575 125.756 69.4879 129.515C66.9182 133.274 60.1702 147.853 59.4004 149.658C58.6306 151.464 54.293 159.279 54.293 159.279C54.293 159.279 56.5441 161.402 61.9594 161.402H73.8361C73.8361 161.402 74.2821 161.248 74.5847 159.9C74.7396 159.308 74.8409 158.704 74.8873 158.095L88.4152 135.695" fill="white"/>
<path d="M88.1285 124.254C88.1285 124.254 86.7799 119.741 81.3646 119.592C75.9492 119.444 72.0575 125.756 69.4879 129.515C66.9182 133.274 60.1702 147.853 59.4004 149.658C58.6306 151.464 54.293 159.279 54.293 159.279C54.293 159.279 56.5441 161.402 61.9594 161.402H73.8361C73.8361 161.402 74.2821 161.248 74.5847 159.9C74.7396 159.308 74.8409 158.704 74.8873 158.095L88.4152 135.695" stroke="#263238" stroke-width="1.1326" stroke-linecap="round" stroke-linejoin="round"/>
<path d="M125.059 176.52L126.131 179.206" stroke="#263238" stroke-width="1.1326" stroke-linecap="round" stroke-linejoin="round"/>
<path d="M125.867 174.641L127.21 177.863" stroke="#263238" stroke-width="1.1326" stroke-linecap="round" stroke-linejoin="round"/>
<path d="M116.621 153.086L110.781 164.219L119.855 156.091" stroke="#263238" stroke-width="1.1326" stroke-linecap="round" stroke-linejoin="round"/>
<path d="M103.765 129.632C101.119 128.782 98.6661 127.42 96.5448 125.624C96.5448 125.624 95.3555 124.78 93.6406 123.766C94.591 128.422 97.4951 141.817 99.7781 144.084C101.971 146.277 106.616 136.906 108.464 131.639C106.953 130.848 105.382 130.176 103.765 129.632Z" fill="white" stroke="#263238" stroke-width="1.1326" stroke-linecap="round" stroke-linejoin="round"/>
<ellipse cx="118.306" cy="112.725" rx="6.41882" ry="8.22925" fill="white" stroke="#263238" stroke-width="1.1326" stroke-linecap="round" stroke-linejoin="round"/>
<path d="M96.8517 110.883C96.8517 110.883 95.9279 121.326 96.5437 125.626C97.1596 129.927 99.6125 143.439 101.455 139.754C103.297 136.07 109.753 124.092 109.753 124.092C109.753 124.092 98.694 115.799 96.8517 110.883Z" fill="white"/>
<path d="M96.8517 110.883C96.8517 110.883 95.9279 121.326 96.5437 125.626C96.7826 127.325 97.3189 130.463 97.9825 133.41L105.575 129.247L108.76 125.903L109.732 124.092C109.732 124.092 98.694 115.799 96.8517 110.883Z" fill="#4932B8"/>
<path opacity="0.5" d="M96.8517 110.883C96.8517 110.883 95.9279 121.326 96.5437 125.626C96.7826 127.325 97.3189 130.463 97.9825 133.41L105.575 129.247L108.76 125.903L109.732 124.092C109.732 124.092 98.694 115.799 96.8517 110.883Z" fill="white"/>
<path fill-rule="evenodd" clip-rule="evenodd" d="M96.8517 110.883C96.8517 110.883 95.9279 121.326 96.5437 125.626C97.1596 129.927 99.6125 143.439 101.455 139.754C103.297 136.07 109.753 124.092 109.753 124.092C109.753 124.092 98.694 115.799 96.8517 110.883Z" stroke="#263238" stroke-width="1.1326" stroke-linecap="round" stroke-linejoin="round"/>
<path d="M95.0052 109.038C95.0052 109.038 92.8815 96.1364 94.7026 91.22C96.5236 86.3037 103.303 83.8509 111.288 86.309C119.274 88.7672 123.882 91.22 125.092 96.7522C126.303 102.284 122.024 105.661 122.024 105.661C122.024 105.661 118.334 97.0602 114.06 96.1364C109.786 95.2126 105.767 94.9099 106.383 97.9786C106.999 101.047 107.307 105.045 105.464 106.58C103.622 108.114 103.314 108.73 102.39 111.188C101.466 113.646 98.7057 116.104 96.5502 113.312C94.3946 110.519 95.0052 109.038 95.0052 109.038Z" fill="#263238" stroke="#263238" stroke-width="1.1326" stroke-linecap="round" stroke-linejoin="round"/>
<path d="M97.1534 109.957C97.1534 109.957 96.5428 105.964 93.7767 107.504C91.0106 109.044 95.0032 114.873 95.0032 114.873C95.4482 119.018 97.0445 122.956 99.6115 126.24C103.912 131.767 111.345 132.516 115.592 128.985C120.37 125.014 122.653 106.872 122.653 106.872C122.653 106.872 124.496 104.414 120.53 98.2713C116.564 92.1285 103.009 92.1285 102.102 94.5867C101.194 97.0448 104.868 101.956 103.944 103.798C103.02 105.64 100.259 103.496 99.6434 106.872C99.0275 110.249 98.3851 112.723 97.1534 109.957Z" fill="white"/>
<path d="M120.498 98.2869C116.505 92.1441 102.978 92.1441 102.07 94.6023C101.162 97.0605 104.836 101.971 103.912 103.814C102.988 105.656 100.227 103.511 99.6115 106.888C98.9957 110.264 98.3851 112.728 97.1534 109.956C97.1534 109.956 96.5428 105.964 93.7767 107.504C91.0106 109.043 95.0032 114.873 95.0032 114.873C95.4482 119.018 97.0445 122.955 99.6115 126.24C102.231 129.701 106.486 131.518 110.798 131.018C108.963 130.74 107.193 130.132 105.574 129.224C101.326 126.76 100.201 122.061 101.544 116.912C102.887 111.762 106.02 99.2319 107.597 97.9577C109.173 96.6835 110.251 97.6657 113.628 100.798C117.004 103.931 118.778 103.708 118.778 103.708L122.234 101.472C121.75 100.362 121.169 99.2956 120.498 98.2869Z" fill="#4932B8"/>
<path opacity="0.5" d="M120.498 98.2869C116.505 92.1441 102.978 92.1441 102.07 94.6023C101.162 97.0605 104.836 101.971 103.912 103.814C102.988 105.656 100.227 103.511 99.6115 106.888C98.9957 110.264 98.3851 112.728 97.1534 109.956C97.1534 109.956 96.5428 105.964 93.7767 107.504C91.0106 109.043 95.0032 114.873 95.0032 114.873C95.4482 119.018 97.0445 122.955 99.6115 126.24C102.231 129.701 106.486 131.518 110.798 131.018C108.963 130.74 107.193 130.132 105.574 129.224C101.326 126.76 100.201 122.061 101.544 116.912C102.887 111.762 106.02 99.2319 107.597 97.9577C109.173 96.6835 110.251 97.6657 113.628 100.798C117.004 103.931 118.778 103.708 118.778 103.708L122.234 101.472C121.75 100.362 121.169 99.2956 120.498 98.2869Z" fill="white"/>
<path fill-rule="evenodd" clip-rule="evenodd" d="M97.1534 109.957C97.1534 109.957 96.5428 105.964 93.7767 107.504C91.0106 109.044 95.0032 114.873 95.0032 114.873C95.4482 119.018 97.0445 122.956 99.6115 126.24C103.912 131.767 111.345 132.516 115.592 128.985C120.37 125.014 122.653 106.872 122.653 106.872C122.653 106.872 124.496 104.414 120.53 98.2713C116.564 92.1285 103.009 92.1285 102.102 94.5867C101.194 97.0448 104.868 101.956 103.944 103.798C103.02 105.64 100.259 103.496 99.6434 106.872C99.0275 110.249 98.3851 112.723 97.1534 109.957Z" stroke="#263238" stroke-width="1.1326" stroke-linecap="round" stroke-linejoin="round"/>
<path d="M108.897 120.588C105.016 119.743 104.172 116.871 104.172 116.871" stroke="#263238" stroke-width="1.1326" stroke-linecap="round" stroke-linejoin="round"/>
<path d="M109.914 112.484C108.056 110.631 106.367 110.461 106.367 110.461" stroke="#263238" stroke-width="1.1326" stroke-linecap="round" stroke-linejoin="round"/>
<path d="M105.188 116.534L102.82 117.044" stroke="#263238" stroke-width="1.1326" stroke-linecap="round" stroke-linejoin="round"/>
<path fill-rule="evenodd" clip-rule="evenodd" d="M104.174 116.875C103.418 117.891 103.113 119.174 103.33 120.422C103.643 122.513 106.017 123.028 106.017 123.028C106.017 123.028 106.197 120.252 107.551 120.422C107.551 120.422 104.849 118.898 104.174 116.875Z" stroke="#263238" stroke-width="1.1326" stroke-linecap="round" stroke-linejoin="round"/>
<path d="M103.913 116.996C103.913 116.996 103.547 120.505 106.037 121.429" stroke="#263238" stroke-width="0.566302" stroke-linecap="round" stroke-linejoin="round"/>
<path d="M117.459 107.469C117.459 107.469 114.9 110.028 114.9 112.815C114.9 115.602 117.459 117.466 115.367 118.167C113.275 118.868 112.574 118.395 112.574 118.395" stroke="#263238" stroke-width="1.1326" stroke-linecap="round" stroke-linejoin="round"/>
<path d="M109.858 110.432C109.641 111.292 109.327 110.91 108.897 110.798C108.467 110.687 108.053 110.894 108.271 110.034C108.488 109.174 109.019 108.558 109.455 108.669C109.89 108.781 110.071 109.567 109.858 110.432Z" fill="#263238"/>
<path d="M118.694 111.822C118.477 112.687 117.946 113.298 117.51 113.186C117.075 113.075 116.889 112.289 117.107 111.423C117.325 110.558 117.856 109.953 118.291 110.059C118.726 110.165 118.912 110.962 118.694 111.822Z" fill="#263238"/>
<path d="M106.531 104.681C106.531 104.681 109.754 103.683 112.855 107.909" stroke="#263238" stroke-width="1.1326" stroke-linecap="round" stroke-linejoin="round"/>
<path d="M118.387 106.773C118.387 106.773 120.712 105.844 121.179 108.169" stroke="#263238" stroke-width="1.1326" stroke-linecap="round" stroke-linejoin="round"/>
<path d="M102.072 94.6045C102.072 94.6045 103.607 97.3653 107.599 97.9811C111.592 98.597 116.508 97.9811 117.432 101.363C118.356 104.745 122.651 108.732 127.567 106.582C132.483 104.432 133.094 94.9018 130.025 90.9199C126.957 86.938 123.267 87.5379 119.582 86.0036C115.897 84.4692 115.897 81.7031 110.365 81.7031C104.833 81.7031 98.3877 86.9221 102.072 89.9961" fill="#263238"/>
<path d="M102.072 94.6045C102.072 94.6045 103.607 97.3653 107.599 97.9811C111.592 98.597 116.508 97.9811 117.432 101.363C118.356 104.745 122.651 108.732 127.567 106.582C132.483 104.432 133.094 94.9018 130.025 90.9199C126.957 86.938 123.267 87.5379 119.582 86.0036C115.897 84.4692 115.897 81.7031 110.365 81.7031C104.833 81.7031 98.3877 86.9221 102.072 89.9961" stroke="#263238" stroke-width="1.1326" stroke-linecap="round" stroke-linejoin="round"/>
<ellipse cx="95.6766" cy="109.538" rx="6.41882" ry="8.22925" fill="white" stroke="#263238" stroke-width="1.1326" stroke-linecap="round" stroke-linejoin="round"/>
<ellipse cx="94.6687" cy="109.574" rx="4.62962" ry="5.94099" fill="#263238" stroke="#263238" stroke-width="1.1326" stroke-linecap="round" stroke-linejoin="round"/>
<path d="M93.779 108.704C93.1788 108.707 92.6698 108.263 92.5898 107.669C92.2739 104.845 92.2828 101.995 92.6163 99.1739C92.6657 98.7471 92.9389 98.379 93.3332 98.2084C93.7274 98.0377 94.1828 98.0903 94.5277 98.3464C94.8727 98.6025 95.0548 99.0232 95.0055 99.4499C94.7018 102.076 94.6893 104.727 94.9683 107.355C95.0136 107.671 94.9308 107.992 94.7384 108.246C94.5459 108.5 94.2598 108.667 93.9436 108.709C93.8887 108.713 93.8336 108.711 93.779 108.704Z" fill="white" stroke="#263238" stroke-width="1.1326" stroke-linecap="round" stroke-linejoin="round"/>
<path d="M118.246 85.36C118.658 85.6152 119.089 85.8371 119.536 86.0237C121.755 86.9475 123.98 87.0855 126.066 87.9403C126.021 87.6645 125.919 87.4009 125.769 87.1652C122.854 82.5409 114.338 75.2619 102.971 80.7941C96.6482 83.8575 92.7619 90.1755 91.7 99.0525C91.5751 100.205 92.3974 101.245 93.5476 101.388H93.7972C94.8614 101.378 95.7534 100.581 95.8837 99.525C96.4783 94.3804 98.5383 87.6058 104.835 84.5371C110.728 81.6914 115.289 83.2682 118.246 85.36Z" fill="white" stroke="#263238" stroke-width="1.1326" stroke-linecap="round" stroke-linejoin="round"/>
<rect x="94.8672" y="182.371" width="74.5942" height="3.01031" fill="white" stroke="#263238" stroke-width="1.1326" stroke-linecap="round" stroke-linejoin="round"/>
<rect x="115.895" y="182.371" width="74.5942" height="3.01031" fill="white" stroke="#263238" stroke-width="1.1326" stroke-linecap="round" stroke-linejoin="round"/>
<path d="M71.5271 177.512H82.5384C85.0689 177.512 87.1203 179.563 87.1203 182.094V187.599H66.9453V182.078C66.9541 179.553 69.0029 177.512 71.5271 177.512V177.512Z" fill="#4932B8" stroke="#263238" stroke-width="1.1326" stroke-linecap="round" stroke-linejoin="round"/>
<path d="M72.0592 179.82H76.7313C79.2618 179.82 81.3131 181.872 81.3131 184.402V189.908H67.5039V184.397C67.5068 181.879 69.5412 179.835 72.0592 179.82Z" fill="#263238" stroke="#263238" stroke-width="1.1326" stroke-linecap="round" stroke-linejoin="round"/>
<path d="M72.057 181.262H75.0036C77.5341 181.262 79.5854 183.313 79.5854 185.844V187.893H67.4805V185.844C67.4805 183.315 69.5286 181.265 72.057 181.262Z" fill="#4932B8" stroke="#263238" stroke-width="1.1326" stroke-linecap="round" stroke-linejoin="round"/>
<rect x="139.574" y="120.938" width="68.8921" height="52.5929" fill="white" stroke="#263238" stroke-width="1.1326" stroke-linecap="round" stroke-linejoin="round"/>
<rect x="142.422" y="120.938" width="68.8921" height="52.5929" fill="#787B8C" stroke="#263238" stroke-width="1.1326" stroke-linecap="round" stroke-linejoin="round"/>
<rect x="170.012" y="154.941" width="16.055" height="30.4323" fill="white" stroke="#263238" stroke-width="1.1326" stroke-linecap="round" stroke-linejoin="round"/>
<rect x="28.4375" y="184.379" width="213.493" height="5.62244" fill="white" stroke="#263238" stroke-width="1.1326" stroke-linecap="round" stroke-linejoin="round"/>
<rect x="102.41" y="184.379" width="139.52" height="5.62244" fill="#787B8C" stroke="#263238" stroke-width="1.1326" stroke-linecap="round" stroke-linejoin="round"/>
</svg>
