<svg width="26" height="26" viewBox="0 0 26 26" fill="none" xmlns="http://www.w3.org/2000/svg">
<rect width="26" height="26" rx="9" fill="#272832"/>
<mask id="mask0" mask-type="alpha" maskUnits="userSpaceOnUse" x="0" y="0" width="26" height="26">
<rect width="26" height="26" rx="9" fill="white"/>
</mask>
<g mask="url(#mask0)">
<path fill-rule="evenodd" clip-rule="evenodd" d="M8.05895 11.0064C8.05895 8.28249 10.275 6.06641 12.999 6.06641C15.7229 6.06641 17.939 8.28249 17.939 11.0064C17.939 13.7303 15.7229 15.9464 12.999 15.9464C10.275 15.9464 8.05895 13.7303 8.05895 11.0064ZM14.0967 17.0442C15.9999 17.0442 17.7928 17.8004 19.1453 19.1737C20.4911 20.5402 21.2323 23.5202 21.2323 25.4291C21.2323 25.7322 20.9865 25.978 20.6834 25.978C20.6834 25.978 15.6104 27.8259 12.999 27.8259C10.4874 27.8259 5.31451 25.978 5.31451 25.978C5.01138 25.978 4.76562 25.7322 4.76562 25.4291C4.76562 23.5202 5.50681 20.5402 6.85265 19.1737C8.20511 17.8004 9.99807 17.0442 11.9012 17.0442H14.0967Z" fill="#4E5163"/>
</g>
</svg>
