<svg width="42" height="42" viewBox="0 0 42 42" fill="none" xmlns="http://www.w3.org/2000/svg">
<rect width="42" height="42" rx="11" fill="#272832"/>
<mask id="mask0" mask-type="alpha" maskUnits="userSpaceOnUse" x="0" y="0" width="42" height="42">
<rect width="42" height="42" rx="11" fill="white"/>
</mask>
<g mask="url(#mask0)">
</g>
<path fill-rule="evenodd" clip-rule="evenodd" d="M25.5952 11.0273H11.7141C10.2173 11.0273 9 12.2447 9 13.7414V25.9055C9 26.4816 9.65152 26.8063 10.1114 26.4778L13.9772 23.7197C14.3016 23.4886 14.6831 23.3663 15.0816 23.3663H23.5842C25.0809 23.3663 26.2983 22.1489 26.2983 20.6522V11.7305C26.2983 11.3423 25.9833 11.0273 25.5952 11.0273ZM22.1798 19.545H14.0559C13.6678 19.545 13.3528 19.2305 13.3528 18.8419C13.3528 18.4538 13.6678 18.1388 14.0559 18.1388H22.1798C22.568 18.1388 22.883 18.4538 22.883 18.8419C22.883 19.2305 22.568 19.545 22.1798 19.545ZM14.0559 16.2638H22.1798C22.568 16.2638 22.883 15.9492 22.883 15.5606C22.883 15.1725 22.568 14.8575 22.1798 14.8575H14.0559C13.6678 14.8575 13.3528 15.1725 13.3528 15.5606C13.3528 15.9492 13.6678 16.2638 14.0559 16.2638Z" fill="#4E5163"/>
<path d="M33.0014 19.195V31.3586C33.0014 31.9308 32.3532 32.2618 31.89 31.9309L28.0242 29.1733C27.6998 28.9422 27.3183 28.8198 26.9198 28.8198H18.4172C16.9205 28.8198 15.7031 27.602 15.7031 26.1053V24.7722H23.5856C25.8577 24.7722 27.7059 22.9239 27.7059 20.6519V16.4805H30.2873C31.7841 16.4805 33.0014 17.6983 33.0014 19.195Z" fill="#4E5163"/>
</svg>
