<svg width="36" height="36" viewBox="0 0 36 36" fill="none" xmlns="http://www.w3.org/2000/svg">
<rect width="36" height="36" rx="8" fill="#272832"/>
<path fill-rule="evenodd" clip-rule="evenodd" d="M14.9271 9H21.0729C24.8925 9 28 12.1075 28 15.9271V22.0729C28 25.8925 24.8925 29 21.0729 29H14.9271C11.1075 29 8 25.8925 8 22.0729V19C8 18.5685 8.34977 18.2188 8.78125 18.2188C9.21273 18.2188 9.5625 18.5685 9.5625 19V22.0729C9.5625 25.031 11.969 27.4375 14.9271 27.4375H21.0729C24.031 27.4375 26.4375 25.031 26.4375 22.0729V15.9271C26.4375 12.969 24.031 10.5625 21.0729 10.5625H14.9271C13.5222 10.5625 12.1874 11.1196 11.1986 12.0729H12.6764C13.1079 12.0729 13.4577 12.4227 13.4577 12.8542C13.4577 13.2857 13.1079 13.6354 12.6764 13.6354H9.60348C9.175 13.6354 8.82223 13.2857 8.82223 12.8542V9.78125C8.82223 9.34977 9.17199 9 9.60348 9C10.035 9 10.3847 9.34977 10.3847 9.78125V10.6984C11.6764 9.57508 13.2907 9 14.9271 9ZM18.7812 18.6764V14.3906C18.7812 13.9591 18.4315 13.6094 18 13.6094C17.5685 13.6094 17.2188 13.9591 17.2188 14.3906V19C17.2188 19.2072 17.3011 19.4059 17.4476 19.5524L20.5205 22.6254C20.8256 22.9304 21.3202 22.9305 21.6254 22.6254C21.9305 22.3203 21.9305 21.8256 21.6254 21.5205L18.7812 18.6764Z" fill="#787B8C"/>
</svg>
