<svg width="46" height="46" viewBox="0 0 46 46" fill="none" xmlns="http://www.w3.org/2000/svg">
<rect width="46" height="46" rx="13" fill="#1B1D25"/>
<path fill-rule="evenodd" clip-rule="evenodd" d="M33.2212 15.9423C33.4866 16.6248 33.6718 17.4125 33.7223 18.5582C33.7729 19.7082 33.7771 20.0746 33.7771 23.0021C33.7771 25.9297 33.7645 26.2961 33.714 27.4461C33.6634 28.5918 33.478 29.3753 33.2128 30.062C32.6525 31.5109 31.5068 32.6566 30.0577 33.2169C29.3753 33.4823 28.5877 33.6676 27.442 33.7181C26.292 33.7687 25.9255 33.7812 22.998 33.7812C20.0705 33.7812 19.7039 33.7687 18.5541 33.7181C17.4082 33.6676 16.6248 33.4823 15.9382 33.2169C15.2221 32.9474 14.5692 32.5219 14.03 31.9743C13.4824 31.4351 13.0571 30.7864 12.7833 30.062C12.5179 29.3794 12.3324 28.5918 12.2819 27.4461C12.2314 26.2961 12.2188 25.9297 12.2188 23.0021C12.2188 20.0746 12.2314 19.7082 12.2862 18.5539C12.3367 17.4082 12.522 16.6248 12.7874 15.9382C13.0571 15.2221 13.4824 14.5692 14.03 14.03C14.5692 13.4782 15.2178 13.0569 15.9425 12.7831C16.6248 12.5179 17.4125 12.3324 18.5582 12.2819C19.7082 12.2314 20.0746 12.2188 23.0021 12.2188C25.9297 12.2188 26.2961 12.2314 27.4504 12.2862C28.5961 12.3367 29.3796 12.522 30.0661 12.7874C30.7822 13.0569 31.4351 13.4824 31.9743 14.03C32.5261 14.5692 32.9474 15.2178 33.2212 15.9423ZM31.4099 29.3627C31.5573 28.9836 31.7342 28.4149 31.7806 27.3618C31.8311 26.2245 31.8438 25.8875 31.8438 23.0105C31.8438 20.1335 31.8311 19.7924 31.7806 18.6551C31.7342 17.6062 31.5573 17.0334 31.4099 16.6543C31.2371 16.1867 30.9633 15.7654 30.6053 15.4158C30.2599 15.0577 29.8344 14.784 29.3669 14.6113C28.9878 14.4639 28.4192 14.287 27.3661 14.2406C26.2329 14.1901 25.8918 14.1775 23.0105 14.1775C20.1337 14.1775 19.7924 14.1901 18.6551 14.2406C17.6063 14.287 17.0334 14.4639 16.6543 14.6113C16.1867 14.784 15.7654 15.0577 15.416 15.4158C15.0536 15.7613 14.7798 16.1867 14.6071 16.6543C14.4596 17.0334 14.2828 17.6021 14.2365 18.6551C14.1858 19.7882 14.1733 20.1335 14.1733 23.0105C14.1733 25.8875 14.1858 26.2288 14.2365 27.3661C14.2828 28.4149 14.4596 28.9878 14.6071 29.3669C14.7798 29.8344 15.0536 30.2556 15.4117 30.6053C15.757 30.9633 16.1826 31.2371 16.65 31.4099C17.0291 31.5573 17.5978 31.7342 18.6508 31.7804C19.784 31.8311 20.1294 31.8436 23.0064 31.8436C25.8834 31.8436 26.2245 31.8311 27.3618 31.7804C28.4108 31.7342 28.9836 31.5573 29.3627 31.4099C30.302 31.0476 31.0476 30.302 31.4099 29.3627ZM17.463 23.0021C17.463 19.944 19.9441 17.463 23.0021 17.463C26.0603 17.463 28.5413 19.944 28.5413 23.0021C28.5413 26.0603 26.0603 28.5413 23.0021 28.5413C19.9441 28.5413 17.463 26.0603 17.463 23.0021ZM19.409 23.0021C19.409 24.9862 21.0183 26.5952 23.0021 26.5952C24.9862 26.5952 26.5952 24.9862 26.5952 23.0021C26.5952 21.0181 24.9862 19.409 23.0021 19.409C21.0183 19.409 19.409 21.0181 19.409 23.0021ZM28.7603 18.5371C29.4745 18.5371 30.0536 17.9581 30.0536 17.244C30.0536 16.5297 29.4745 15.9509 28.7603 15.9509C28.0462 15.9509 27.4671 16.5297 27.4671 17.244C27.4671 17.9581 28.0462 18.5371 28.7603 18.5371Z" fill="white"/>
</svg>
