<svg width="22" height="22" viewBox="0 0 22 22" fill="none" xmlns="http://www.w3.org/2000/svg">
<path fill-rule="evenodd" clip-rule="evenodd" d="M14.999 6.24992H18.6916L18.6916 6.2499C19.9642 6.2499 20.9999 7.28566 20.9999 8.55825C20.9999 8.73281 20.9798 8.90737 20.9407 9.07766L19.6065 15.2007C19.236 16.5539 17.9964 17.4993 16.5926 17.4993L10.3749 17.4999C8.6519 17.4999 7.24992 16.0979 7.24992 14.3749V7.83438C7.24992 7.06168 7.53435 6.31949 8.05131 5.74393L13.0354 0.206817C13.1911 0.034087 13.4279 -0.0373243 13.6513 0.0188281L14.5693 0.248321C15.1399 0.390532 15.6014 0.781769 15.8351 1.32132C16.0689 1.86026 16.0396 2.4639 15.754 2.97721L14.4521 5.32157C14.2958 5.60355 14.4057 5.84953 14.46 5.94169C14.5143 6.03446 14.6761 6.24992 14.999 6.24992ZM1 16.2502V6.25018C1 5.5598 1.55962 5.00018 2.25 5.00018H6V17.5002H2.25C1.55962 17.5002 1 16.9405 1 16.2502Z" fill="white"/>
</svg>
