<svg width="331" height="221" viewBox="0 0 331 221" fill="none" xmlns="http://www.w3.org/2000/svg">
<path d="M0 210.055C0 212.94 74.0155 215.283 165.362 215.283C256.708 215.283 330.723 212.94 330.723 210.055C330.723 207.169 256.708 204.826 165.402 204.826C74.0966 204.826 0 207.169 0 210.055Z" fill="#4932B8"/>
<path opacity="0.6" d="M0 210.055C0 212.94 74.0155 215.283 165.362 215.283C256.708 215.283 330.723 212.94 330.723 210.055C330.723 207.169 256.708 204.826 165.402 204.826C74.0966 204.826 0 207.169 0 210.055Z" fill="white"/>
<path d="M305.1 122.105C304.881 113.869 305.521 99.8137 298.291 94.026C291.944 88.9436 287.007 95.8417 285.232 101.402C280.912 114.899 281.374 165.691 282.492 175.92C282.492 175.92 281.39 165.675 273.341 170.068C265.292 174.461 277.394 197.523 277.394 197.523C277.394 197.523 267.877 190.568 263.484 196.42C259.09 202.273 268.98 208.871 268.98 208.871C268.98 208.871 259.828 206.31 259.828 208.871C259.828 211.433 262.754 213.629 271.176 214.732H316.57C316.57 214.732 323.865 210.679 322.43 206.31C320.996 201.941 313.246 204.47 313.246 204.47C313.246 204.47 324.959 190.195 324.222 183.97C323.484 177.744 308.48 185.064 308.48 185.064C308.48 185.064 320.201 155.412 318.005 142.232C316.27 131.848 308.213 138.99 303.827 142.945C304.858 136.049 305.284 129.076 305.1 122.105Z" fill="#4932B8"/>
<path opacity="0.1" d="M305.1 122.105C304.881 113.869 305.521 99.8137 298.291 94.026C291.944 88.9436 287.007 95.8417 285.232 101.402C280.912 114.899 281.374 165.691 282.492 175.92C282.492 175.92 281.39 165.675 273.341 170.068C265.292 174.461 277.394 197.523 277.394 197.523C277.394 197.523 267.877 190.568 263.484 196.42C259.09 202.273 268.98 208.871 268.98 208.871C268.98 208.871 259.828 206.31 259.828 208.871C259.828 211.433 262.754 213.629 271.176 214.732H316.57C316.57 214.732 323.865 210.679 322.43 206.31C320.996 201.941 313.246 204.47 313.246 204.47C313.246 204.47 324.959 190.195 324.222 183.97C323.484 177.744 308.48 185.064 308.48 185.064C308.48 185.064 320.201 155.412 318.005 142.232C316.27 131.848 308.213 138.99 303.827 142.945C304.858 136.049 305.284 129.076 305.1 122.105Z" fill="black"/>
<path d="M290.5 213.752L293.84 113.684" stroke="#4932B8" stroke-width="1.72695" stroke-linecap="round" stroke-linejoin="round"/>
<path d="M292.375 172.265L309.584 156.15" stroke="#4932B8" stroke-width="1.72695" stroke-linecap="round" stroke-linejoin="round"/>
<path d="M300.43 164.937L304.085 154.691" stroke="#4932B8" stroke-width="1.72695" stroke-linecap="round" stroke-linejoin="round"/>
<path d="M278.098 184.707L291.027 198.495" stroke="#4932B8" stroke-width="1.72695" stroke-linecap="round" stroke-linejoin="round"/>
<path d="M313.248 192.766L291.281 204.114" stroke="#4932B8" stroke-width="1.72695" stroke-linecap="round" stroke-linejoin="round"/>
<path d="M302.172 198.359L309.581 198.991" stroke="#4932B8" stroke-width="1.72695" stroke-linecap="round" stroke-linejoin="round"/>
<path d="M139.952 215.122C139.952 218.137 111.216 220.585 75.7767 220.585C40.3375 220.585 11.5938 218.153 11.5938 215.122C11.5938 212.09 40.3294 209.658 75.7767 209.658C111.224 209.658 139.952 212.106 139.952 215.122Z" fill="#787B8C"/>
<path d="M43.8198 114.777C43.8198 114.777 48.7806 112.265 50.9368 114.421C53.093 116.577 52.2257 139.646 52.8742 146.974C53.267 151.345 54.0731 155.668 55.2816 159.887C55.2816 159.887 48.1646 158.598 42.7741 155.834C42.7741 155.834 38.0321 132.813 43.8198 114.777Z" fill="#787B8C" stroke="#263238" stroke-width="0.75" stroke-linecap="round" stroke-linejoin="round"/>
<path d="M142.591 167.022C141.39 167.021 140.348 166.193 140.076 165.023C139.803 163.853 140.372 162.65 141.449 162.118L164.883 151.58L183.073 130.658C183.993 129.566 185.624 129.426 186.716 130.346C187.809 131.266 187.948 132.898 187.028 133.99L168.49 155.325C168.268 155.597 167.992 155.821 167.679 155.981L143.751 166.754C143.392 166.936 142.994 167.028 142.591 167.022Z" fill="white" stroke="#263238" stroke-width="0.75" stroke-linecap="round" stroke-linejoin="round"/>
<path d="M158.617 157.886L161.187 156.719" stroke="#263238" stroke-width="0.75" stroke-linecap="round" stroke-linejoin="round"/>
<path d="M146.766 163.277L156.922 158.656" stroke="#263238" stroke-width="0.75" stroke-linecap="round" stroke-linejoin="round"/>
<path d="M181.503 137.49L174.734 145.142" stroke="#263238" stroke-width="0.75" stroke-linecap="round" stroke-linejoin="round"/>
<path d="M173.638 146.236L172.105 147.979" stroke="#263238" stroke-width="0.75" stroke-linecap="round" stroke-linejoin="round"/>
<ellipse cx="123.823" cy="171.125" rx="22.4969" ry="22.4969" transform="rotate(-76.6608 123.823 171.125)" fill="#4932B8" stroke="#263238" stroke-width="0.747671" stroke-linecap="round" stroke-linejoin="round"/>
<path d="M67.5951 87.8583C67.5951 87.8583 70.8375 95.4617 71.5184 96.9451C72.1993 98.4285 72.8477 98.8338 72.6937 99.304C72.5397 99.7741 70.8861 100.317 70.8861 100.317C71.1157 102.657 70.7097 105.015 69.7107 107.142C68.0895 110.385 64.9282 112.079 64.6202 114.114C64.4388 116.07 64.4117 118.038 64.5391 119.998L59.7566 116.075C59.7566 116.075 61.086 112.233 59.9106 109.412C58.9142 107.104 57.1382 105.219 54.893 104.086C52.0978 102.252 50.1087 99.4191 49.3324 96.167C48.6271 92.3977 50.8157 88.4014 53.7177 85.5806C56.6196 82.7597 62.3424 83.3109 62.9747 83.546C63.607 83.7811 61.4021 81.9248 63.3638 81.5033C65.3254 81.0818 66.5008 83.9351 66.6062 84.4052C66.7115 84.8754 67.3114 82.3706 67.9436 84.0161C68.5759 85.6616 67.5951 87.8583 67.5951 87.8583Z" fill="white"/>
<g style="mix-blend-mode:multiply" opacity="0.5">
<path d="M61.7507 117.737C61.7224 117.193 61.6601 116.652 61.5642 116.116C61.2481 114.689 63.1854 110.247 63.7853 105.019C64.3851 99.7902 60.2916 92.4868 60.2916 92.4868L57.2924 83.7891C55.9604 84.0745 54.7273 84.7065 53.7177 85.621C50.8157 88.4419 48.6271 92.4381 49.3324 96.2074C50.1087 99.4595 52.0978 102.292 54.893 104.127C57.1382 105.259 58.9141 107.144 59.9106 109.453C61.086 112.273 59.7566 116.116 59.7566 116.116L61.7507 117.737Z" fill="#4932B8"/>
</g>
<path fill-rule="evenodd" clip-rule="evenodd" d="M67.5951 87.8583C67.5951 87.8583 70.8375 95.4617 71.5184 96.9451C72.1993 98.4285 72.8477 98.8338 72.6937 99.304C72.5397 99.7741 70.8861 100.317 70.8861 100.317C71.1157 102.657 70.7097 105.015 69.7107 107.142C68.0895 110.385 64.9282 112.079 64.6202 114.114C64.4388 116.07 64.4117 118.038 64.5391 119.998L59.7566 116.075C59.7566 116.075 61.086 112.233 59.9106 109.412C58.9142 107.104 57.1382 105.219 54.893 104.086C52.0978 102.252 50.1087 99.4191 49.3324 96.167C48.6271 92.3977 50.8157 88.4014 53.7177 85.5806C56.6196 82.7597 62.3424 83.3109 62.9747 83.546C63.607 83.7811 61.4021 81.9248 63.3638 81.5033C65.3254 81.0818 66.5008 83.9351 66.6062 84.4052C66.7115 84.8754 67.3114 82.3706 67.9436 84.0161C68.5759 85.6616 67.5951 87.8583 67.5951 87.8583Z" stroke="#263238" stroke-width="0.75" stroke-linecap="round" stroke-linejoin="round"/>
<path d="M67.9036 91.902C67.9036 91.902 66.485 91.5129 66.0149 92.7126C65.7156 93.2695 65.6887 93.9329 65.9419 94.5121" stroke="#263238" stroke-width="0.75" stroke-linecap="round" stroke-linejoin="round"/>
<path d="M69.559 103.851C69.559 103.851 68.1486 104.556 67.2812 103.616" stroke="#263238" stroke-width="0.75" stroke-linecap="round" stroke-linejoin="round"/>
<path d="M66.7951 97.2773L60.2617 100.106" stroke="#263238" stroke-width="0.75" stroke-linecap="round" stroke-linejoin="round"/>
<path d="M57.5287 103.543C56.6466 104.842 56.2348 106.404 56.3614 107.969C56.556 110.644 56.4911 114.291 55.1212 113.967C53.7513 113.643 55.7697 109.533 55.7697 107.839C55.6887 106.548 55.3928 105.28 54.8942 104.086" stroke="#263238" stroke-width="0.75" stroke-linecap="round" stroke-linejoin="round"/>
<path d="M71.5597 95.2175L70.0195 95.8822" stroke="#263238" stroke-width="0.75" stroke-linecap="round" stroke-linejoin="round"/>
<path d="M69.0387 96.7425C69.2413 97.4315 69.2413 98.0394 69.0387 98.0961C68.836 98.1529 68.5118 97.6422 68.3091 96.9532C68.1065 96.2642 68.1146 95.6563 68.3091 95.5914C68.5037 95.5266 68.8441 96.0453 69.0387 96.7425Z" fill="#263238"/>
<path fill-rule="evenodd" clip-rule="evenodd" d="M69.8591 96.7428C70.4022 98.364 70.2644 99.8636 69.5511 100.107C68.8378 100.35 67.8164 99.2233 67.2733 97.6102C66.7302 95.9971 66.868 94.4813 67.5813 94.2381C68.2947 93.9949 69.316 95.1216 69.8591 96.7428Z" stroke="#263238" stroke-width="0.75" stroke-linecap="round" stroke-linejoin="round"/>
<path d="M59.0273 103.024C59.0273 103.024 57.7385 101.468 58.8976 101.598C59.6393 101.751 60.2371 102.299 60.454 103.024" stroke="#263238" stroke-width="0.5" stroke-linecap="round" stroke-linejoin="round"/>
<path d="M95.2701 129.637L90.7227 132.855L91.4279 136.616L96.6076 134.581L95.2701 129.637Z" fill="white" stroke="#263238" stroke-width="0.75" stroke-linecap="round" stroke-linejoin="round"/>
<path d="M91.193 131.914L93.2357 139.517C93.2357 139.517 79.488 145.791 76.7725 147.729C74.057 149.666 71.9089 149.139 71.9089 149.139L70.1094 140.352C70.1094 140.352 72.0629 141.293 76.2213 139.493C80.3796 137.694 91.193 131.914 91.193 131.914Z" fill="white" stroke="#263238" stroke-width="0.75" stroke-linecap="round" stroke-linejoin="round"/>
<path d="M97.947 151.7C97.3758 151.64 96.9344 151.171 96.9094 150.598L95.0937 120.516C95.0435 120.083 95.2395 119.657 95.6017 119.414C95.9639 119.17 96.4318 119.149 96.8145 119.359C97.1973 119.569 97.4309 119.975 97.4201 120.411L99.2359 150.484C99.2513 150.794 99.1429 151.097 98.9345 151.326C98.7262 151.556 98.435 151.693 98.1253 151.708L97.947 151.7Z" fill="#263238" stroke="#263238" stroke-width="0.75" stroke-linecap="round" stroke-linejoin="round"/>
<path d="M94.4848 128.922C93.8867 128.897 93.4048 128.423 93.3693 127.825C93.3337 127.227 93.7561 126.7 94.347 126.604L98.8944 126.052C99.3243 125.966 99.7666 126.127 100.04 126.47C100.312 126.814 100.37 127.281 100.188 127.68C100.006 128.079 99.6163 128.343 99.1781 128.363L94.6307 128.914L94.4848 128.922Z" fill="white" stroke="#263238" stroke-width="0.75" stroke-linecap="round" stroke-linejoin="round"/>
<path d="M94.7192 131.273C94.121 131.248 93.6392 130.774 93.6036 130.176C93.5681 129.579 93.9905 129.051 94.5814 128.955L99.1288 128.404C99.7677 128.332 100.346 128.787 100.426 129.425C100.462 129.731 100.376 130.038 100.186 130.28C99.9961 130.521 99.7178 130.678 99.4125 130.714L94.8651 131.265L94.7192 131.273Z" fill="white" stroke="#263238" stroke-width="0.75" stroke-linecap="round" stroke-linejoin="round"/>
<path d="M94.9695 133.414C94.3787 133.412 93.8917 132.95 93.8574 132.361C93.8231 131.771 94.2533 131.256 94.8398 131.185L99.1927 130.658C99.592 130.605 99.989 130.771 100.232 131.092C100.475 131.414 100.526 131.841 100.367 132.211C100.207 132.58 99.8607 132.836 99.4602 132.879L95.1073 133.406L94.9695 133.414Z" fill="white" stroke="#263238" stroke-width="0.75" stroke-linecap="round" stroke-linejoin="round"/>
<path d="M95.6989 135.465C95.234 135.419 94.8818 135.024 94.8883 134.557C94.7948 134.055 95.0902 133.561 95.5773 133.406L98.6576 132.912C99.0953 132.855 99.4682 133.252 99.5331 133.82C99.6344 134.323 99.3361 134.822 98.8441 134.971L95.7719 135.457L95.6989 135.465Z" fill="white" stroke="#263238" stroke-width="0.75" stroke-linecap="round" stroke-linejoin="round"/>
<path d="M94.0301 131.759C94.0023 132.217 93.6371 132.583 93.179 132.61C92.6825 132.746 92.163 132.488 91.9712 132.011L91.2579 128.979C91.1606 128.549 91.5254 128.128 92.0685 128.031C92.562 127.903 93.074 128.159 93.2682 128.63L93.9896 131.67C93.9896 131.67 94.022 131.727 94.0301 131.759Z" fill="white" stroke="#263238" stroke-width="0.75" stroke-linecap="round" stroke-linejoin="round"/>
<path d="M58.033 113.725C58.033 113.725 63.6018 117.097 66.1876 121.328C68.7734 125.559 70.9701 131.866 72.2265 137.402C73.4829 142.938 74.4962 157.391 75.2825 160.374C75.6629 161.957 76.2431 163.485 77.009 164.922C72.4718 166.606 67.6535 167.404 62.8155 167.273C55.131 166.956 53.9557 165.076 53.9557 165.076C53.9557 165.076 51.3699 147.988 51.605 134.419C51.84 120.85 58.033 113.725 58.033 113.725Z" fill="white"/>
<g style="mix-blend-mode:multiply" opacity="0.5">
<path d="M54.7501 129.085C54.7501 129.085 53.9395 130.357 54.5879 127.026C55.1127 124.695 55.967 122.452 57.1251 120.363L60.9268 124.643L63.3099 124.805L62.6777 125.915L67.2738 128.769L65.0933 126.199L65.2473 122.276L61.5672 123.411C61.5672 123.411 59.184 119.131 58.5517 117.736C58.1302 116.78 59.5407 115.969 60.5296 115.54C59.7283 114.916 58.8949 114.334 58.033 113.797C58.033 113.797 51.84 120.93 51.6049 134.491C51.4185 145.248 53.0073 158.209 53.672 163.122L65.8309 162.449L54.7501 129.085Z" fill="#4932B8"/>
</g>
<path fill-rule="evenodd" clip-rule="evenodd" d="M58.033 113.725C58.033 113.725 63.6018 117.097 66.1876 121.328C68.7734 125.559 70.9701 131.866 72.2265 137.402C73.4829 142.938 74.4962 157.391 75.2825 160.374C75.6629 161.957 76.2431 163.485 77.009 164.922C72.4718 166.606 67.6535 167.404 62.8155 167.273C55.131 166.956 53.9557 165.076 53.9557 165.076C53.9557 165.076 51.3699 147.988 51.605 134.419C51.84 120.85 58.033 113.725 58.033 113.725Z" stroke="#263238" stroke-width="0.75" stroke-linecap="round" stroke-linejoin="round"/>
<path d="M56.3867 116.473L62.1906 123.444L65.2465 122.268L65.0925 126.192L69.7129 131.76" stroke="#263238" stroke-width="0.75" stroke-linecap="round" stroke-linejoin="round"/>
<path d="M52.8203 131.25C52.8203 131.25 53.4688 137.735 55.4061 139.275" stroke="#263238" stroke-width="0.5" stroke-linecap="round" stroke-linejoin="round"/>
<path d="M53.207 138.244C53.207 138.244 54.0176 140.676 56.0522 141.487" stroke="#263238" stroke-width="0.5" stroke-linecap="round" stroke-linejoin="round"/>
<path d="M70.0358 134.742L66.6719 136.039L67.1907 137.466L70.2952 136.299" stroke="#263238" stroke-width="0.5" stroke-linecap="round" stroke-linejoin="round"/>
<path d="M92.7264 159.166C92.1516 159.165 91.6632 158.746 91.5754 158.177L87.3765 130.909C87.2803 130.271 87.7194 129.676 88.3573 129.58C88.9953 129.483 89.5905 129.923 89.6867 130.56L93.8856 157.829C93.9777 158.466 93.5405 159.058 92.9048 159.158L92.7264 159.166Z" fill="#263238" stroke="#263238" stroke-width="0.75" stroke-linecap="round" stroke-linejoin="round"/>
<path d="M67.5963 87.8586C67.5963 87.8586 68.5365 85.6619 67.9124 84.0164C67.2882 82.3709 66.656 84.8756 66.5749 84.4054C66.4938 83.9353 65.3266 81.1144 63.3325 81.5035C61.3385 81.8926 63.5676 83.7813 62.9434 83.5462C62.3193 83.3111 56.5884 82.7356 53.6864 85.5808C50.7845 88.426 48.5959 92.3979 49.3011 96.1672C50.0775 99.4193 52.0665 102.252 54.8618 104.087C56.329 104.839 57.6087 105.911 58.6067 107.224C59.4492 106.547 60.2181 105.784 60.9007 104.946C60.0743 105.21 59.1718 105.065 58.4689 104.557C57.2125 103.69 56.5884 101.185 58.1609 99.9284C59.7335 98.6719 61.2493 101.525 61.2493 101.525C62.8705 102.393 62.2625 100.115 61.6384 99.0934C61.0142 98.0721 61.8734 96.9697 62.1085 95.4863C62.3436 94.0029 60.309 93.4436 60.5441 91.9521C60.7791 90.4606 67.5963 87.8586 67.5963 87.8586Z" fill="#263238" stroke="#263238" stroke-width="0.75" stroke-linecap="round" stroke-linejoin="round"/>
<path d="M63.8188 88.9111C63.8188 88.9111 60.9736 87.4845 59.1579 89.7217C57.3422 91.9589 57.7393 95.6796 56.3127 97.8763C55.6371 99.1017 54.4467 99.9588 53.0703 100.211" stroke="white" stroke-width="0.5" stroke-linecap="round" stroke-linejoin="round"/>
<path d="M51.3945 96.297C53.1769 96.4883 54.7859 95.2213 55.0179 93.4437C55.6664 90.2013 59.2897 85.5485 62.9212 85.4188C66.5527 85.2891 66.2852 87.8506 66.2852 87.8506" stroke="white" stroke-width="0.5" stroke-linecap="round" stroke-linejoin="round"/>
<path d="M82.7305 141.398L85.0001 139.907C85.0001 139.907 86.9618 136.3 87.1158 136.064C87.2698 135.829 92.0604 133.479 92.4495 133.795C92.8969 134.186 93.1292 134.768 93.0737 135.359C92.9197 135.756 92.3685 136.17 92.3685 136.543C92.3685 136.916 93.0007 139.907 93.0007 140.693C93.0007 141.479 89.7583 142.809 88.4533 143.206C87.1482 143.603 85.3973 143.595 85.0001 143.911L83.9058 144.77L82.7305 141.398Z" fill="white" stroke="#263238" stroke-width="0.75" stroke-linecap="round" stroke-linejoin="round"/>
<path d="M56.3842 125.566C56.3842 125.566 54.3496 126.11 55.0548 131.832C55.76 137.555 61.4828 156.839 63.5174 159.198C65.552 161.557 85.4035 148.377 85.4035 148.377L82.9717 140.846C82.9717 140.846 69.5645 146.099 68.4702 146.334C67.3759 146.569 64.2307 129.482 63.1364 127.366" fill="white"/>
<g style="mix-blend-mode:multiply" opacity="0.5">
<path d="M85.0413 147.282C80.9154 148.587 71.3666 151.562 70.1264 151.432C68.5052 151.278 68.0675 150.322 67.111 149.057C66.1545 147.793 64.7359 152.859 63.4633 153.337C62.1906 153.815 63.1472 147.663 63.6254 146.358C64.1037 145.053 62.5149 146.998 62.5149 146.998C62.5149 146.998 59.3455 140.514 57.7567 136.055C56.7495 133.145 55.9557 130.165 55.3816 127.139L55.025 128.014C54.8458 129.27 54.8458 130.544 55.025 131.8C55.7302 137.522 61.453 156.806 63.4876 159.165C65.5222 161.524 85.3737 148.344 85.3737 148.344L85.0413 147.282Z" fill="#4932B8"/>
</g>
<path d="M56.3842 125.566C56.3842 125.566 54.3496 126.11 55.0548 131.832C55.76 137.555 61.4828 156.839 63.5174 159.198C65.552 161.557 85.4035 148.377 85.4035 148.377L82.9717 140.846C82.9717 140.846 69.5645 146.099 68.4702 146.334C67.3759 146.569 64.2307 129.482 63.1364 127.366" stroke="#263238" stroke-width="0.75" stroke-linecap="round" stroke-linejoin="round"/>
<path d="M68.4634 146.334C66.8483 147.379 65.7321 149.04 65.375 150.93" stroke="#263238" stroke-width="0.5" stroke-linecap="round" stroke-linejoin="round"/>
<path d="M65.507 148.076C64.4067 149.175 63.7984 150.672 63.8209 152.226" stroke="#263238" stroke-width="0.5" stroke-linecap="round" stroke-linejoin="round"/>
<path d="M45.2971 154.448C45.2971 154.448 43.1409 147.259 43.4246 132.311C43.7083 117.364 44.5757 115.929 43.8543 114.778C43.1328 113.627 30.0741 121.319 20.347 132.53C14.154 139.696 6.24261 150.306 5.72383 167.021C5.29421 180.388 11.6493 191.193 15.6374 194.184C22.5356 199.355 31.9547 198.999 32.9598 198.999H129.226C129.226 198.999 135.403 196.843 136.838 191.241C138.272 185.64 143.16 169.68 132.963 150.566C126.268 138.026 114.279 124.554 112.26 125.559C110.242 126.564 102.704 140.96 92.4333 149.99C82.7304 158.526 64.2651 164.792 45.2971 154.448Z" fill="#4932B8" stroke="#263238" stroke-width="0.75" stroke-linecap="round" stroke-linejoin="round"/>
<path d="M132.986 150.565C131.551 147.89 129.881 145.175 128.122 142.564C122.497 144.502 108.392 150.289 100.562 161.849C93.8422 171.77 98.3085 187.512 112.316 198.998H129.233C129.233 198.998 135.41 196.842 136.844 191.233C138.279 185.623 143.159 169.679 132.986 150.565Z" fill="white" stroke="#263238" stroke-width="0.75" stroke-linecap="round" stroke-linejoin="round"/>
<path d="M136.078 180.809C135.926 182.214 135.702 183.654 135.405 185.129" stroke="#263238" stroke-width="0.75" stroke-linecap="round" stroke-linejoin="round"/>
<path d="M131.254 153.006C131.254 153.006 137.082 163.049 136.336 177.697" stroke="#263238" stroke-width="0.75" stroke-linecap="round" stroke-linejoin="round"/>
<path d="M43.0112 196.955V182.583C35.5132 180.152 30.674 177.266 26.1589 174.558C19.6742 170.676 15.1348 160.211 18.1827 153.434C20.9792 147.177 28.7204 144.38 32.8383 147.177C36.8569 149.817 41.0071 152.252 45.2728 154.472C45.2728 154.472 43.1166 147.282 43.4003 132.335C43.684 117.387 44.5514 115.952 43.8299 114.801C43.1085 113.65 30.0498 121.343 20.3227 132.553C14.154 139.695 6.24261 150.305 5.72383 167.02C5.29421 180.387 11.6493 191.192 15.6374 194.183C22.5356 199.355 31.9547 198.998 32.9598 198.998H43.0112C43.0112 198.26 43.0112 197.571 43.0112 196.955Z" fill="white" stroke="#263238" stroke-width="0.75" stroke-linecap="round" stroke-linejoin="round"/>
<path d="M8.78175 169.834C8.85515 171.604 9.0447 173.366 9.34916 175.111" stroke="#263238" stroke-width="0.75" stroke-linecap="round" stroke-linejoin="round"/>
<path d="M31.9529 125.631C29.6183 127.722 26.1328 130.178 23.9685 132.683C17.7674 139.849 9.29671 150.087 8.76172 166.801" stroke="#263238" stroke-width="0.75" stroke-linecap="round" stroke-linejoin="round"/>
<path d="M65.4174 197.273C65.4174 205.176 53.2584 205.898 38.1813 205.898C23.1043 205.898 10.9453 205.606 10.9453 197.273C10.9453 185.762 23.1043 174.576 38.1813 174.576C53.2584 174.576 65.4174 185.762 65.4174 197.273Z" fill="#4932B8" stroke="#263238" stroke-width="0.75" stroke-linecap="round" stroke-linejoin="round"/>
<path d="M38.1464 174.568C24.2284 174.568 12.7666 184.15 11.1211 194.695C12.7423 201.334 24.2284 201.586 38.1464 201.586C52.0643 201.586 63.4937 200.969 65.1635 194.647C63.5261 184.117 52.0724 174.568 38.1464 174.568Z" fill="#787B8C" stroke="#263238" stroke-width="0.75" stroke-linecap="round" stroke-linejoin="round"/>
<path d="M135.833 198.116C135.833 205.273 124.792 205.93 111.174 205.93C97.5562 205.93 86.5078 205.67 86.5078 198.116C86.5078 187.699 97.5481 177.551 111.174 177.551C124.8 177.551 135.833 187.699 135.833 198.116Z" fill="#4932B8" stroke="#263238" stroke-width="0.75" stroke-linecap="round" stroke-linejoin="round"/>
<path d="M111.175 177.551C98.5702 177.551 88.1865 186.232 86.7031 195.789C88.1865 201.796 98.5702 202.023 111.175 202.023C123.78 202.023 134.123 201.463 135.639 195.741C134.123 186.208 123.755 177.551 111.175 177.551Z" fill="#787B8C" stroke="#263238" stroke-width="0.75" stroke-linecap="round" stroke-linejoin="round"/>
<path d="M207.188 112.872C205.181 112.121 204.161 109.887 204.91 107.879L215.853 78.6244C216.338 77.3212 217.481 76.3758 218.853 76.1442C220.224 75.9127 221.614 76.4303 222.5 77.502C223.386 78.5737 223.633 80.0367 223.148 81.3399L212.205 110.594C211.845 111.564 211.112 112.35 210.17 112.778C209.228 113.205 208.155 113.239 207.188 112.872Z" fill="white" stroke="#263238" stroke-width="0.75" stroke-linecap="round" stroke-linejoin="round"/>
<path d="M219.785 83.8945L213.641 100.042" stroke="#263238" stroke-width="0.75" stroke-linecap="round" stroke-linejoin="round"/>
<path d="M190.539 157.455C188.825 156.816 187.434 155.521 186.674 153.857C185.914 152.192 185.846 150.293 186.486 148.579L202.107 106.809C203.45 103.239 207.433 101.433 211.003 102.776C214.573 104.119 216.379 108.102 215.036 111.672L199.383 153.402C198.052 156.955 194.1 158.766 190.539 157.455Z" fill="#787B8C" stroke="#263238" stroke-width="0.75" stroke-linecap="round" stroke-linejoin="round"/>
<path fill-rule="evenodd" clip-rule="evenodd" d="M194.424 28.2387C202.556 6.49285 226.777 -4.54342 248.523 3.58844C270.266 11.724 281.301 35.9417 273.173 57.6876C265.041 79.4334 240.82 90.4694 219.074 82.3373C197.329 74.2053 186.292 49.9845 194.424 28.2387ZM201.245 30.7875C194.519 48.7663 203.641 68.7937 221.619 75.5207C239.6 82.2439 259.627 73.1212 266.356 55.1423C273.08 37.1628 263.957 17.1364 245.978 10.4112C227.998 3.68603 207.971 12.8086 201.245 30.7875Z" fill="#787B8C"/>
<path d="M248.523 3.58844L248.654 3.23723L248.654 3.2372L248.523 3.58844ZM194.424 28.2387L194.073 28.1073L194.424 28.2387ZM273.173 57.6876L273.524 57.819L273.524 57.8189L273.173 57.6876ZM219.074 82.3373L218.943 82.6886L219.074 82.3373ZM221.619 75.5207L221.488 75.8719L221.488 75.872L221.619 75.5207ZM201.245 30.7875L201.597 30.9189L201.245 30.7875ZM266.356 55.1423L266.707 55.2738L266.707 55.2737L266.356 55.1423ZM245.978 10.4112L246.109 10.06L245.978 10.4112ZM248.654 3.2372C226.714 -4.9672 202.278 6.16752 194.073 28.1073L194.776 28.37C202.835 6.81819 226.84 -4.11963 248.392 3.93969L248.654 3.2372ZM273.524 57.8189C281.724 35.8791 270.591 11.4453 248.654 3.23723L248.392 3.93966C269.94 12.0026 280.877 36.0044 272.822 57.5563L273.524 57.8189ZM218.943 82.6886C240.883 90.8932 265.32 79.7587 273.524 57.819L272.822 57.5563C264.762 79.108 240.758 90.0456 219.206 81.9861L218.943 82.6886ZM194.073 28.1073C185.869 50.0472 197.003 74.484 218.943 82.6886L219.206 81.9861C197.654 73.9266 186.716 49.9219 194.776 28.37L194.073 28.1073ZM221.751 75.1695C203.966 68.5151 194.943 48.7037 201.597 30.9189L200.894 30.6561C194.095 48.8289 203.315 69.0723 221.488 75.8719L221.751 75.1695ZM266.005 55.0109C259.349 72.7958 239.538 81.8201 221.751 75.1695L221.488 75.872C239.663 82.6676 259.906 73.4465 266.707 55.2738L266.005 55.0109ZM245.846 10.7624C263.631 17.415 272.657 37.2254 266.005 55.011L266.707 55.2737C273.504 37.1002 264.282 16.8577 246.109 10.06L245.846 10.7624ZM201.597 30.9189C208.25 13.134 228.061 4.10982 245.846 10.7624L246.109 10.06C227.936 3.26224 207.693 12.4833 200.894 30.6561L201.597 30.9189Z" fill="#263238"/>
<path d="M205.609 30.1924C209.016 22.6806 215.286 16.8433 223.021 13.9805" stroke="#263238" stroke-width="0.75" stroke-linecap="round" stroke-linejoin="round"/>
<path d="M202.828 43.0651C202.82 39.912 203.295 36.7763 204.239 33.7676" stroke="#263238" stroke-width="0.75" stroke-linecap="round" stroke-linejoin="round"/>
<path d="M193.946 51.6407C189.617 31.7028 200.686 11.6332 219.858 4.65659C239.031 -2.32007 260.409 5.94232 269.907 23.9994" stroke="white"/>
<path d="M274.298 38.1035C276.754 58.1806 264.125 77.0249 244.622 82.3862C225.119 87.7476 204.632 78.0064 196.48 59.4951" stroke="white"/>
<path d="M271.543 27.5254C272.601 30.1044 273.392 32.7854 273.902 35.526" stroke="white"/>
<ellipse cx="70.5719" cy="174.576" rx="11.6969" ry="11.6969" fill="#263238"/>
<ellipse cx="70.5723" cy="174.576" rx="9.87306" ry="9.87306" fill="white" stroke="#263238" stroke-width="0.75" stroke-linecap="round" stroke-linejoin="round"/>
<path d="M67.5711 177.494C67.393 177.312 67.393 177.02 67.5711 176.838L70.2461 174.163C70.4287 173.985 70.72 173.985 70.9026 174.163C70.9928 174.25 71.0437 174.37 71.0437 174.495C71.0437 174.621 70.9928 174.741 70.9026 174.828L68.2358 177.494C68.1487 177.585 68.0288 177.636 67.9034 177.636C67.7781 177.636 67.6582 177.585 67.5711 177.494Z" fill="#263238"/>
<path d="M63.5023 181.562C63.3412 181.409 63.25 181.197 63.25 180.974C63.25 180.752 63.3412 180.54 63.5023 180.387L67.3121 176.577C67.4654 176.413 67.6796 176.32 67.9038 176.32C68.1281 176.32 68.3423 176.413 68.4956 176.577C68.6567 176.73 68.7479 176.942 68.7479 177.165C68.7479 177.387 68.6567 177.599 68.4956 177.752L64.6858 181.562C64.5325 181.726 64.3183 181.819 64.094 181.819C63.8698 181.819 63.6556 181.726 63.5023 181.562Z" fill="#263238"/>
<path d="M77.5915 174.738C79.0468 173.285 79.4831 171.098 78.6969 169.198C77.9107 167.298 76.0569 166.059 74.0006 166.059C71.9442 166.059 70.0904 167.298 69.3042 169.198C68.518 171.098 68.9544 173.285 70.4096 174.738C72.3938 176.719 75.6073 176.719 77.5915 174.738Z" fill="#263238"/>
<path d="M76.6192 173.757C78.059 172.312 78.0563 169.974 76.6132 168.532C75.17 167.091 72.832 167.091 71.3888 168.532C69.9457 169.974 69.943 172.312 71.3828 173.757C72.0763 174.453 73.0185 174.844 74.001 174.844C74.9836 174.844 75.9257 174.453 76.6192 173.757Z" fill="white"/>
<path d="M215.668 132.863C215.668 135.007 213.93 136.746 211.786 136.746H184.412C182.984 136.811 181.635 136.086 180.902 134.86C180.168 133.633 180.168 132.102 180.902 130.875C181.635 129.648 182.984 128.923 184.412 128.988H211.786C213.927 128.988 215.664 130.722 215.668 132.863Z" fill="#4932B8" stroke="#263238" stroke-width="0.75" stroke-linecap="round" stroke-linejoin="round"/>
<circle cx="199.285" cy="133.389" r="2.15619" fill="white" stroke="#263238" stroke-width="0.75" stroke-linecap="round" stroke-linejoin="round"/>
<circle cx="166.514" cy="153.444" r="5.25266" fill="#4932B8" stroke="#263238" stroke-width="0.75" stroke-linecap="round" stroke-linejoin="round"/>
<path d="M168.483 153.443C168.486 152.645 168.008 151.925 167.272 151.617C166.536 151.31 165.688 151.476 165.123 152.039C164.558 152.602 164.388 153.45 164.692 154.187C164.997 154.924 165.715 155.404 166.513 155.404C167.597 155.404 168.478 154.527 168.483 153.443Z" fill="white" stroke="#263238" stroke-width="0.75" stroke-linecap="round" stroke-linejoin="round"/>
<ellipse cx="184.413" cy="132.96" rx="5.25267" ry="5.25266" fill="#4932B8" stroke="#263238" stroke-width="0.75" stroke-linecap="round" stroke-linejoin="round"/>
<ellipse cx="184.413" cy="132.96" rx="2.0265" ry="2.02649" fill="white" stroke="#263238" stroke-width="0.75" stroke-linecap="round" stroke-linejoin="round"/>
</svg>
