<svg width="18" height="18" viewBox="0 0 18 18" fill="none" xmlns="http://www.w3.org/2000/svg">
<path fill-rule="evenodd" clip-rule="evenodd" d="M13.8008 6.00005C12.93 6.00005 12.1449 5.62737 11.5964 5.03311L6.17108 8.12607C6.25544 8.40267 6.30083 8.69612 6.30083 9C6.30083 9.30373 6.25548 9.59704 6.17121 9.87353L11.5967 12.9666C12.1452 12.3725 12.9302 12 13.8008 12C15.4553 12 16.8007 13.3455 16.8007 15C16.8007 16.6544 15.4553 18 13.8008 18C12.1462 18 10.8008 16.6544 10.8008 15C10.8008 14.7549 10.8304 14.5165 10.8861 14.2883L5.38753 11.1536C4.84721 11.6773 4.11103 12 3.30074 12C1.64633 12 0.300781 10.6545 0.300781 9C0.300781 7.34546 1.64633 6.00005 3.30074 6.00005C4.1109 6.00005 4.84698 6.32263 5.38727 6.84614L10.886 3.71131C10.8303 3.48321 10.8008 3.24497 10.8008 2.99995C10.8008 1.34555 12.1462 0 13.8008 0C15.4553 0 16.8007 1.34555 16.8007 2.99995C16.8007 4.6545 15.4553 6.00005 13.8008 6.00005Z" fill="white"/>
</svg>
