<svg width="17" height="16" viewBox="0 0 17 16" fill="none" xmlns="http://www.w3.org/2000/svg">
<path d="M3 4.16602V1.16602C3 0.992682 3.02 0.826016 3.06667 0.666016H1.16667C0.526667 0.666016 0 1.19268 0 1.83268V4.83268C0 5.47268 0.526667 5.99935 1.16667 5.99935H1.41333L2.26667 7.13268C2.36 7.25268 2.5 7.32602 2.64667 7.33268H2.66667C2.81333 7.33268 2.94667 7.27268 3.04 7.15935L4.04 6.01935C3.42 5.63268 3 4.94602 3 4.16602Z" fill="#4E5163"/>
<path d="M14.8343 0.666016H12.9343C12.9809 0.826016 13.0009 0.992682 13.0009 1.16602V4.16602C13.0009 4.94602 12.5809 5.63268 11.9609 6.01935L12.9609 7.15935C13.0543 7.27268 13.1876 7.33268 13.3343 7.33268H13.3543C13.5009 7.32602 13.6409 7.25268 13.7343 7.13268L14.5809 5.99935H14.8343C15.4743 5.99935 16.0009 5.47268 16.0009 4.83268V1.83268C16.0009 1.19268 15.4743 0.666016 14.8343 0.666016Z" fill="#4E5163"/>
<path d="M8 6.66667C7.994 6.66667 7.98733 6.66667 7.98133 6.66667C7.83067 6.66067 7.69067 6.58733 7.6 6.46667L6.75 5.33333H5.16667C4.52333 5.33333 4 4.81 4 4.16667V1.16667C4 0.523333 4.52333 0 5.16667 0H10.8333C11.4767 0 12 0.523333 12 1.16667V4.16667C12 4.81 11.4767 5.33333 10.8333 5.33333H9.39333L8.376 6.496C8.28133 6.60467 8.144 6.66667 8 6.66667Z" fill="#4E5163"/>
<circle cx="2.66536" cy="9.99935" r="1.33333" fill="#4E5163"/>
<path d="M4.44667 12.2667C3.77333 12.7733 3.33333 13.5867 3.33333 14.5V14.6667H0.5C0.226667 14.6667 0 14.44 0 14.1667V13.8333C0 12.82 0.82 12 1.83333 12H3.5C3.84667 12 4.17333 12.1 4.44667 12.2667Z" fill="#4E5163"/>
<circle cx="13.3333" cy="9.99935" r="1.33333" fill="#4E5163"/>
<path d="M16.0014 13.8333V14.1667C16.0014 14.44 15.7747 14.6667 15.5014 14.6667H12.668V14.5C12.668 13.5867 12.228 12.7733 11.5547 12.2667C11.828 12.1 12.1547 12 12.5014 12H14.168C15.1814 12 16.0014 12.82 16.0014 13.8333Z" fill="#4E5163"/>
<circle cx="8" cy="9.66602" r="2" fill="#4E5163"/>
<path d="M9.83203 12.666H6.16536C5.15403 12.666 4.33203 13.488 4.33203 14.4993V15.4993C4.33203 15.7753 4.55603 15.9993 4.83203 15.9993H11.1654C11.4414 15.9993 11.6654 15.7753 11.6654 15.4993V14.4993C11.6654 13.488 10.8434 12.666 9.83203 12.666Z" fill="#4E5163"/>
</svg>
