<svg width="16" height="16" viewBox="0 0 16 16" fill="none" xmlns="http://www.w3.org/2000/svg">
<path fill-rule="evenodd" clip-rule="evenodd" d="M14.7242 7.09378C16.0007 4.62586 16.048 2.01789 15.9813 0.794774C15.9584 0.375684 15.6243 0.0415621 15.2052 0.0187186C15.006 0.00784368 14.77 0 14.504 0C13.1363 0 10.9722 0.207154 8.90618 1.2758C7.26425 2.12507 5.11124 3.99509 3.841 6.45263C3.856 6.46435 3.87066 6.47678 3.88447 6.4906L9.50942 12.1155C9.52323 12.1294 9.53564 12.144 9.54736 12.159C12.0049 10.8887 13.8749 8.7357 14.7242 7.09378ZM9.30298 3.38247C10.2168 2.4687 11.7036 2.4686 12.6175 3.38247C13.0602 3.82512 13.3039 4.41371 13.3039 5.03973C13.3039 5.66576 13.0602 6.25435 12.6175 6.697C12.1606 7.15384 11.5603 7.38231 10.9602 7.38237C10.36 7.3824 9.75995 7.15396 9.30298 6.697C8.8603 6.25435 8.61649 5.66576 8.61649 5.03973C8.61649 4.41371 8.8603 3.82512 9.30298 3.38247ZM2.68376 4.42793L4.06994 4.32083C3.00301 5.76885 2.29227 7.34059 1.99536 8.9162L0.726157 8.71964C0.436316 8.67473 0.192412 8.4878 0.0737259 8.21955C-0.0449293 7.9513 -0.0192108 7.64508 0.142569 7.4004L1.74121 4.98255C1.95452 4.65989 2.29805 4.45774 2.68376 4.42793ZM7.28035 15.2738L7.08375 14.0046C8.6594 13.7077 10.2311 12.997 11.6791 11.93L11.5721 13.3162C11.5423 13.7018 11.3402 14.0454 11.0175 14.2587L8.59958 15.8574C8.45668 15.9519 8.29274 15.9999 8.12765 15.9999C8.01012 15.9999 7.892 15.9756 7.7804 15.9262C7.51219 15.8075 7.32525 15.5636 7.28035 15.2738ZM6.60642 13.1249C6.65048 13.1249 6.69479 13.1213 6.73901 13.1139C7.39913 13.0035 8.03537 12.8176 8.6423 12.5742L3.42579 7.35768C3.18242 7.96458 2.99648 8.60083 2.88611 9.26098C2.84261 9.52119 2.92989 9.78628 3.11642 9.97285L6.02714 12.8836C6.18201 13.0384 6.39104 13.1249 6.60642 13.1249ZM11.9546 6.03407C12.2202 5.76845 12.3665 5.41532 12.3665 5.0397C12.3665 4.66408 12.2202 4.31096 11.9546 4.04537C11.6805 3.77121 11.3204 3.63415 10.9602 3.63415C10.6002 3.63415 10.24 3.77121 9.96591 4.04537C9.70032 4.31096 9.55401 4.66408 9.55401 5.0397C9.55401 5.41532 9.70029 5.76848 9.96588 6.03407C10.5142 6.58235 11.4063 6.58238 11.9546 6.03407ZM0.809719 13.0481C0.71822 13.1397 0.598252 13.1854 0.478285 13.1854C0.358317 13.1854 0.238349 13.1397 0.146819 13.0481C-0.0362419 12.8651 -0.0362419 12.5683 0.146819 12.3852L1.67721 10.8548C1.86027 10.6718 2.15708 10.6718 2.34011 10.8548C2.52317 11.0379 2.52317 11.3347 2.34011 11.5177L0.809719 13.0481ZM3.74263 12.2574C3.5596 12.0743 3.26279 12.0743 3.07973 12.2574L0.137413 15.1997C-0.045648 15.3827 -0.045648 15.6795 0.137413 15.8626C0.228943 15.9541 0.348911 15.9999 0.468878 15.9999C0.588846 15.9999 0.708814 15.9541 0.800313 15.8625L3.7426 12.9203C3.92569 12.7372 3.92569 12.4404 3.74263 12.2574ZM2.95186 15.1903L4.48222 13.6599C4.66528 13.4768 4.96209 13.4768 5.14512 13.6599C5.32818 13.8429 5.32818 14.1397 5.14512 14.3228L3.61472 15.8532C3.52323 15.9447 3.40323 15.9905 3.28329 15.9905C3.16335 15.9905 3.04339 15.9447 2.95186 15.8532C2.76879 15.6701 2.76879 15.3733 2.95186 15.1903Z" fill="#4E5163"/>
</svg>
