<svg width="16" height="14" viewBox="0 0 16 14" fill="none" xmlns="http://www.w3.org/2000/svg">
<path fill-rule="evenodd" clip-rule="evenodd" d="M5.2223 2.82654C5.2223 1.29489 6.46836 0.0488281 7.99999 0.0488281C9.53161 0.0488281 10.7777 1.29492 10.7777 2.82654C10.7777 3.86542 10.2043 4.77279 9.35745 5.24916C8.9558 5.4751 8.49273 5.60422 7.99999 5.60422C7.50724 5.60422 7.04418 5.4751 6.64252 5.24916C5.79571 4.77279 5.2223 3.86545 5.2223 2.82654ZM9.41439 6.17304H6.58558C5.31202 6.17304 4.2759 7.20916 4.2759 8.48272V13.1593C4.2759 13.4144 4.48271 13.6212 4.73784 13.6212H11.2621C11.5173 13.6212 11.7241 13.4144 11.7241 13.1593V8.48272C11.7241 7.20916 10.688 6.17304 9.41439 6.17304ZM12.4529 7.37632H13.6903C14.9638 7.37632 16 8.41244 15.9999 9.68597V12.2354C15.9999 12.9995 15.3783 13.6212 14.6141 13.6212H12.5685C12.6198 13.4766 12.6479 13.3212 12.6479 13.1592V8.48269C12.6479 8.09428 12.579 7.72163 12.4529 7.37632ZM3.54706 7.37635C3.42093 7.72166 3.35203 8.09428 3.35203 8.48272V13.1593C3.35203 13.3212 3.38021 13.4766 3.43149 13.6212H1.38581C0.621655 13.6212 0 12.9996 0 12.2354V9.68603C0 8.41247 1.03612 7.37635 2.30968 7.37635H3.54706ZM3.12243 2.63785C1.97697 2.63785 1.04509 3.56973 1.04509 4.71519C1.04509 5.86066 1.97697 6.79253 3.12243 6.79253C3.41299 6.79253 3.68968 6.73235 3.94102 6.62416C4.37559 6.43707 4.7339 6.10588 4.95562 5.69104C5.11124 5.39988 5.19977 5.06773 5.19977 4.71519C5.19977 3.56976 4.2679 2.63785 3.12243 2.63785ZM10.8002 4.71519C10.8002 3.56973 11.7321 2.63785 12.8775 2.63785C14.023 2.63785 14.9549 3.56973 14.9549 4.71519C14.9549 5.86066 14.023 6.79253 12.8775 6.79253C12.587 6.79253 12.3103 6.73235 12.0589 6.62416C11.6244 6.4371 11.2661 6.10591 11.0444 5.69104C10.8887 5.39991 10.8002 5.06776 10.8002 4.71519Z" fill="#4E5163"/>
</svg>
