<svg width="18" height="14" viewBox="0 0 18 14" fill="none" xmlns="http://www.w3.org/2000/svg">
<path fill-rule="evenodd" clip-rule="evenodd" d="M17.5 5.30792V6.3874L17.4998 7.48834V8.61074C17.4998 8.9146 17.2534 9.16121 16.9498 9.16121H11.4487C11.145 9.16121 10.8986 8.9146 10.8986 8.61074V7.5098H9.39405V10.9227C9.39405 11.2266 9.14761 11.4732 8.84397 11.4732H7.10124V12.573C7.10124 12.8769 6.85534 13.1235 6.55115 13.1235H1.05008C0.746445 13.1235 0.5 12.8769 0.5 12.573V9.27021C0.5 8.96635 0.746445 8.71974 1.05008 8.71974H6.55115C6.85534 8.71974 7.10124 8.96635 7.10124 9.27021V10.3722H8.29388V3.54642H7.10124V4.64626C7.10124 4.95012 6.85534 5.19673 6.55115 5.19673H1.05008C0.746445 5.19673 0.5 4.95012 0.5 4.64626V1.34344C0.5 1.03958 0.746445 0.792969 1.05008 0.792969H6.55132C6.85551 0.792969 7.1014 1.03958 7.1014 1.34344V2.44548H8.84413C9.14777 2.44548 9.39422 2.69209 9.39422 2.99595V6.40886H10.8988V5.30792C10.8988 5.00406 11.1452 4.75745 11.4488 4.75745H16.9499C17.2536 4.75745 17.5 5.00406 17.5 5.30792ZM1.60022 4.09579H6.00107V1.89391H1.60022V4.09579ZM6.00107 12.0226H1.60022V9.82068H6.00107V12.0226ZM11.9989 8.06027H16.3998V5.85839H11.9989V8.06027Z" fill="#4E5163"/>
</svg>
