<svg width="46" height="46" viewBox="0 0 46 46" fill="none" xmlns="http://www.w3.org/2000/svg">
<rect width="46" height="46" rx="13" fill="#1B1D25"/>
<path d="M34.5 15.8686C33.6447 16.2437 32.7333 16.4924 31.7831 16.6132C32.7606 16.0296 33.5067 15.1124 33.8574 14.007C32.9461 14.5504 31.9398 14.9342 30.8674 15.1484C30.0021 14.2269 28.7687 13.6562 27.4232 13.6562C24.8127 13.6562 22.7111 15.7751 22.7111 18.3727C22.7111 18.7464 22.7427 19.1058 22.8203 19.4479C18.9002 19.2568 15.4316 17.3779 13.1014 14.5159C12.6946 15.2217 12.4559 16.0296 12.4559 16.8993C12.4559 18.5322 13.2969 19.9798 14.5504 20.8179C13.7928 20.8035 13.0496 20.5836 12.42 20.2371C12.42 20.2515 12.42 20.2702 12.42 20.2889C12.42 22.5802 14.0544 24.4835 16.1978 24.9219C15.8139 25.0269 15.3956 25.0772 14.9615 25.0772C14.6596 25.0772 14.3549 25.0599 14.0688 24.9967C14.6797 26.864 16.4134 28.2368 18.4748 28.2814C16.8705 29.5363 14.8336 30.2924 12.6284 30.2924C12.2418 30.2924 11.8709 30.2752 11.5 30.2278C13.5887 31.5747 16.0641 32.3438 18.7335 32.3438C27.4102 32.3438 32.154 25.1562 32.154 18.9261C32.154 18.7177 32.1468 18.5164 32.1367 18.3166C33.0726 17.6525 33.8589 16.8231 34.5 15.8686Z" fill="white"/>
</svg>
