<svg width="42" height="42" viewBox="0 0 42 42" fill="none" xmlns="http://www.w3.org/2000/svg">
<rect width="42" height="42" rx="11" fill="#272832"/>
<mask id="mask0" mask-type="alpha" maskUnits="userSpaceOnUse" x="0" y="0" width="42" height="42">
<rect width="42" height="42" rx="11" fill="white"/>
</mask>
<g mask="url(#mask0)">
<path fill-rule="evenodd" clip-rule="evenodd" d="M12.6 16.9C12.6 12.2682 16.3682 8.5 21 8.5C25.6318 8.5 29.4 12.2682 29.4 16.9C29.4 21.5318 25.6318 25.3 21 25.3C16.3682 25.3 12.6 21.5318 12.6 16.9ZM22.8667 27.1667C26.1028 27.1667 29.1515 28.4526 31.4512 30.7877C33.7397 33.1113 35 38.1785 35 41.4244C35 41.9399 34.5821 42.3578 34.0667 42.3578C34.0667 42.3578 25.4405 45.5 21 45.5C16.7294 45.5 7.93333 42.3578 7.93333 42.3578C7.41788 42.3578 7 41.9399 7 41.4244C7 38.1785 8.26031 33.1113 10.5488 30.7877C12.8485 28.4526 15.8973 27.1667 19.1333 27.1667H22.8667Z" fill="#4E5163"/>
</g>
</svg>
