<svg width="17" height="16" viewBox="0 0 17 16" fill="none" xmlns="http://www.w3.org/2000/svg">
<path d="M7.44185 9.38559C6.89821 8.33199 5.58601 7.93092 4.49543 8.51562C3.4095 9.09776 2.97317 10.438 3.52284 11.5032C4.06459 12.5532 5.37507 12.9598 6.46926 12.3732C7.55516 11.791 7.99149 10.4508 7.44185 9.38559Z" fill="#4E5163"/>
<path fill-rule="evenodd" clip-rule="evenodd" d="M16.0199 3.94921L14.0684 0.251218C13.9471 0.0212784 13.6624 -0.0667855 13.4324 0.0544005L8.03718 2.89838C7.80721 3.0196 7.71899 3.30423 7.84002 3.53429L8.33707 4.47892L6.66872 5.35594L6.17249 4.41292C6.05139 4.18289 5.76623 4.09417 5.53604 4.21573L2.93399 5.58852C0.165144 7.04803 -0.839319 10.5253 0.770007 13.2467L0.416369 13.6002C-0.133363 14.1497 -0.13352 15.0393 0.416369 15.5889C0.964721 16.137 1.85691 16.137 2.4053 15.5889L2.77181 15.2226C4.40207 16.1525 6.46688 16.2167 8.22719 15.2099C10.5132 13.9021 11.4572 11.2372 10.7663 8.89304C10.5229 8.06703 10.8969 7.15722 11.7048 6.7402L15.8217 4.58629C16.0527 4.46542 16.1416 4.17972 16.0199 3.94921ZM1.73956 14.9227C1.55825 15.1039 1.26338 15.1039 1.08214 14.9227C0.900705 14.7413 0.900643 14.4478 1.08214 14.2664L1.32439 14.0243C1.52802 14.263 1.74945 14.4808 1.98532 14.6771L1.73956 14.9227ZM2.68613 11.9353C3.47129 13.4568 5.36041 14.0365 6.91445 13.2035C8.45091 12.3797 9.06306 10.4734 8.27905 8.95385V8.95382C7.49395 7.43234 5.60536 6.85222 4.05073 7.68564C2.51421 8.50933 1.90206 10.4157 2.68613 11.9353Z" fill="#4E5163"/>
<path d="M5.5512 2.21852C5.67239 2.44877 5.95718 2.53706 6.18721 2.41596C6.41737 2.29487 6.50575 2.01005 6.38466 1.77989L5.6885 0.4568C5.56737 0.22664 5.28265 0.138231 5.05249 0.259354C4.82233 0.380446 4.73395 0.665265 4.85504 0.895424L5.5512 2.21852Z" fill="#4E5163"/>
<path d="M3.48043 3.41757C5.02725 3.7535 4.93146 3.73714 5.00244 3.73714C5.2192 3.73714 5.41426 3.58654 5.46217 3.36608C5.51736 3.1119 5.35608 2.86112 5.10194 2.80592L3.68032 2.49718C3.42612 2.44189 3.17542 2.6033 3.1202 2.85744C3.06501 3.11159 3.22632 3.36237 3.48043 3.41757Z" fill="#4E5163"/>
<path d="M7.3785 2.35927C7.61895 2.45782 7.89413 2.34279 7.99271 2.10196L8.55227 0.735473C8.65082 0.494796 8.53563 0.219773 8.29496 0.121223C8.05422 0.0225787 7.77929 0.137862 7.68074 0.378539L7.12118 1.74502C7.02263 1.9857 7.13785 2.26072 7.3785 2.35927Z" fill="#4E5163"/>
</svg>
